<svg id="Layer_1" data-name="Layer 1" xmlns="http://www.w3.org/2000/svg" viewBox="0 0 1920 1080"><defs><style>.cls-1{fill:#fefefe;}.cls-2{fill:#030303;}.cls-3{fill:#c6c6c6;}</style></defs><path class="cls-1" d="M678.42,1079.67q-232.35,0-464.7.08c-3,0-3.72-.68-3.72-3.72q.12-418.15,0-836.31c0-3,.68-3.72,3.72-3.72q746.28.12,1492.56,0c3,0,3.72.68,3.72,3.72q-.12,418.16,0,836.31c0,3-.68,3.72-3.72,3.72q-252.61-.13-505.22-.08c.53-4.76-1.65-9.11-2.2-13.61-1.37-11.29-4.5-22.09-7.4-33-2.41-9-4.45-18.1-7.67-26.89-1.63-4.44.12-6.62,4.76-6.66a65.64,65.64,0,0,1,7.29,0c5.45.58,7.7-1.16,9.15-6.5,1.65-6.12.81-12.36,1.45-18.5.49-4.79-1.73-9.19-1.5-13.89.06-1.15-.39-2.56,1.11-3.16,1.28-.51,2.31.16,3.3.94,8.81,6.95,18.83,11.56,29.36,15.25,9.37,3.28,19,3.35,28.75,3.18,5.39-.1,5.74-.49,5.88-6.07.23-8.32-1.13-16.48-1.92-24.71s-1.09-16.28-2-24.38c-.38-3.45.65-3,2.92-2.28,5.51,1.68,11,3.39,16.62,4.76a222.17,222.17,0,0,0,24.91,4.37,145.81,145.81,0,0,0,20.73,1.29c4.06-.06,5.62-2.44,4.67-6.41-.71-3-1.4-5.92-2-8.91a163.91,163.91,0,0,0-8-28.2c-7.19-18.37-14.3-36.88-25.38-53.48-8.29-12.42-16.24-25.06-27-35.63a204.87,204.87,0,0,0-35-27.67c-1.81-1.14-2.8-2.12-.59-4,4.16-3.59,8.44-7.08,11.33-11.92,2.76-4.63,7-8.43,9.52-13,4.08-7.24,6.83-15.31,9.39-23.27,3.54-11,7-22.09,7.33-33.86.17-5.79-1-11.45-.9-17.21.08-4.71.31-9.38-1.52-14-2.76-7-2.38-14.84-5.86-21.68a5.8,5.8,0,0,1-.13-3.58c2.27-10.18,4.11-20.44,6.14-30.67a258.47,258.47,0,0,0,4.61-42.21c.15-4.67,0-9.36,0-14.32,7.24,5.41,14.15,10.67,21.17,15.78,10.34,7.53,20.87,14.84,32.61,20,13,5.76,26.28,11,39.43,16.46,13.32,5.55,26.63,11.2,40.75,14.46,12.7,2.94,25.55,5,38.68,4.3a3.62,3.62,0,0,0,2.61-1.1c4.29-3.92,2.43-9.12,1.35-12.68a105,105,0,0,0-17.1-33.23c-2.27-3-.67-6.4,3.07-7.19.65-.14,1.44,0,1.93-.35,6.11-4.23,13.39-5.71,20.09-8.54,6.52-2.75,13.51-4.2,20-7.24,3.64-1.72,4.46-3.94,3.13-7.69-2.27-6.37-6.15-11.78-10.22-16.94-6.07-7.69-11.71-15.74-19.65-21.94-4.58-3.58-8.46-8.16-13.13-11.79-.93-.72-2-1.47-.7-3.19,4.08-5.21,9-9.46,14.1-13.61,8-6.56,16.51-12.51,24-19.67,3.48-3.33,3.12-7.24-.93-9.6A65,65,0,0,0,1474,432c-6.91-2.77-13.86-5.47-20.86-8-5.48-2-10.67-4.77-16.46-5.9a166.34,166.34,0,0,1-23.56-6.41c-10.44-3.7-21.31-5.35-32.13-7.31a152.74,152.74,0,0,0-16.65-1.72c-8.5-.59-17-2.25-25.47-1.86-11.88.55-23.79.45-35.65,1.93-9.3,1.16-18.52,2.59-27.65,4.63a206.7,206.7,0,0,0-34,11.11c-1.88.77-2.82.56-3.89-1.14-4.86-7.68-11.19-14.11-17.63-20.45-3.75-3.69-7.67-7.26-11.07-11.25-5.25-6.16-11.37-11.26-17.73-16.21a159.87,159.87,0,0,0-21.4-14.45c-6.51-3.55-12.46-8.14-19-11.61-10.15-5.37-20.28-10.9-31.18-14.71-4-1.42-7.26-4.17-11-6-16-7.88-33.3-12.34-49.6-19.4-7.86-3.4-16.55-4-24.45-7.26-2.67-1.1-5.35-2.64-8.13-3-7.29-.83-14.64-1.32-22-1.55-12.92-.4-25.84-.46-38.76-.77-3.44-.09-6.77-.76-10.32-.37-8.7,1-17.22,3.35-26,3.3-1.56,0-3.18-.55-4.66-.25-7.46,1.51-14.74,3.7-22.38,4.66a69.17,69.17,0,0,0-20,5.74c-7.2,3.25-15.21,4.72-22.83,7A162.07,162.07,0,0,0,812.33,334c-3.5,2.49-6.47,2.13-10,.77-6.25-2.4-12.06-5.78-19-6.5-13-1.37-25.85-3.67-39.18-2.55-13,1.09-25.16,4.39-37.22,8.71-6.61,2.37-7.53,6.42-2.94,11.85a74,74,0,0,1,14,23.85c1.7,5,1.62,5-3.51,5.89-1.16.21-2.26.78-3.41,1.07-9.67,2.43-18.52,6.81-27.43,11.12a95.92,95.92,0,0,0-21.91,14c-2,1.8-2.17,3.51.28,4.91,4,2.29,7.17,5.55,10.25,8.89,1.54,1.67,4.15,2.84,4.36,5.11.27,2.78-3.13,2.79-4.67,4.31a107.22,107.22,0,0,0-17.11,22.31c-1.1,1.85-1,3.12.58,4.52s2.85,3.31,4.58,4.53a68,68,0,0,0,37.07,12.42c5.64.21,5.5,0,4,5.08a159.37,159.37,0,0,1-7.37,21.36c-4,9-7.9,17.9-8.9,27.84-.48,4.72-1.31,9.42-1.91,14.12-1.09,8.53-2.23,17.07-2.79,25.63-.64,9.59,1.55,19,2.48,28.56A53,53,0,0,0,688.56,612c1.49,2.76,1.79,6,1.91,9.33A139.57,139.57,0,0,1,690,640c-.91,9.12-.83,18.43-2,27.55-.54,4.07.12,8.23-1.21,12.18-2.87,8.6-3.56,17.57-4.2,26.49-.71,9.93,1.18,19.82.84,29.78-.1,3.1.81,6.26,1.34,9.37a72.48,72.48,0,0,0,5.79,18.33c3,6.33,3.79,13.47,7.61,19.42,1,1.56.41,2.73-.29,4.09-5.73,11.16-11.88,22.11-16.77,33.69-3.41,8.11-6.89,16.1-7.58,25.15-.44,5.76-1.7,11.51-2.38,17.3-.26,2.19,1.67,5,3.56,4.1,3.74-1.83,7.86-1.59,11.7-3,8.34-3,16.17-7.06,24.33-10.43,1.45-.6,3-1.35,2.92,1.32-.34,10.06,1.8,19.93,2.31,29.93A144.12,144.12,0,0,0,718.29,905c1.44,7.58,1.71,7.42,9.46,4.74a21.81,21.81,0,0,0,5.31-2.52c10.09-7,21.53-11.77,31.39-19.16,3.91-2.93,4.57-2.66,6.4,1.83,2.69,6.56,5.17,13.13,6.26,20.29,1.25,8.22,5.61,15.54,8.43,23.32,1,2.84.83,3.7-2.16,3.52a5.18,5.18,0,0,0-2,.08c-10.11,3.64-21.08,2.71-31.26,5.85-6.31,1.95-13.38,1.74-18.67,6.82-2.45,2.36-3.39,5.82-5.74,7.86-4.16,3.61-6.15,8.26-7.45,13.13-2.78,10.32-7.26,20-11.52,29.66-5.75,13.07-11.82,26-16.32,39.56C686.05,1053.11,680,1065.73,678.42,1079.67Z"/><path class="cls-2" d="M678.42,1079.67c1.61-13.94,7.63-26.56,12-39.67,4.5-13.56,10.57-26.49,16.32-39.56,4.26-9.66,8.74-19.34,11.52-29.66,1.3-4.87,3.29-9.52,7.45-13.13,2.35-2,3.29-5.5,5.74-7.86,5.29-5.08,12.36-4.87,18.67-6.82,10.18-3.14,21.15-2.21,31.26-5.85a5.18,5.18,0,0,1,2-.08c3,.18,3.19-.68,2.16-3.52-2.82-7.78-7.18-15.1-8.43-23.32-1.09-7.16-3.57-13.73-6.26-20.29-1.83-4.49-2.49-4.76-6.4-1.83-9.86,7.39-21.3,12.16-31.39,19.16a21.81,21.81,0,0,1-5.31,2.52c-7.75,2.68-8,2.84-9.46-4.74a144.12,144.12,0,0,1-2.38-19.74c-.51-10-2.65-19.87-2.31-29.93.09-2.67-1.47-1.92-2.92-1.32-8.16,3.37-16,7.45-24.33,10.43-3.84,1.37-8,1.13-11.7,3-1.89.92-3.82-1.91-3.56-4.1.68-5.79,1.94-11.54,2.38-17.3.69-9,4.17-17,7.58-25.15,4.89-11.58,11-22.53,16.77-33.69.7-1.36,1.29-2.53.29-4.09-3.82-6-4.64-13.09-7.61-19.42a72.48,72.48,0,0,1-5.79-18.33c-.53-3.11-1.44-6.27-1.34-9.37.34-10-1.55-19.85-.84-29.78.64-8.92,1.33-17.89,4.2-26.49,1.33-4,.67-8.11,1.21-12.18,1.2-9.12,1.12-18.43,2-27.55a139.57,139.57,0,0,0,.5-18.61c-.12-3.3-.42-6.57-1.91-9.33a53,53,0,0,1-5.94-20.23c-.93-9.51-3.12-19-2.48-28.56.56-8.56,1.7-17.1,2.79-25.63.6-4.7,1.43-9.4,1.91-14.12,1-9.94,4.88-18.87,8.9-27.84a159.37,159.37,0,0,0,7.37-21.36c1.46-5.08,1.6-4.87-4-5.08A68,68,0,0,1,660,456.79c-1.73-1.22-3-3.08-4.58-4.53s-1.68-2.67-.58-4.52A107.22,107.22,0,0,1,672,425.43c1.54-1.52,4.94-1.53,4.67-4.31-.21-2.27-2.82-3.44-4.36-5.11-3.08-3.34-6.23-6.6-10.25-8.89-2.45-1.4-2.32-3.11-.28-4.91a95.92,95.92,0,0,1,21.91-14c8.91-4.31,17.76-8.69,27.43-11.12,1.15-.29,2.25-.86,3.41-1.07,5.13-.91,5.21-.91,3.51-5.89a74,74,0,0,0-14-23.85c-4.59-5.43-3.67-9.48,2.94-11.85,12.06-4.32,24.25-7.62,37.22-8.71,13.33-1.12,26.15,1.18,39.18,2.55,7,.72,12.77,4.1,19,6.5,3.51,1.36,6.48,1.72,10-.77a162.07,162.07,0,0,1,47.08-23.13c7.62-2.33,15.63-3.8,22.83-7a69.17,69.17,0,0,1,20-5.74c7.64-1,14.92-3.15,22.38-4.66,1.48-.3,3.1.25,4.66.25,8.82.05,17.34-2.33,26-3.3,3.55-.39,6.88.28,10.32.37,12.92.31,25.84.37,38.76.77,7.33.23,14.68.72,22,1.55,2.78.32,5.46,1.86,8.13,3,7.9,3.27,16.59,3.86,24.45,7.26,16.3,7.06,33.62,11.52,49.6,19.4,3.77,1.86,7,4.61,11,6,10.9,3.81,21,9.34,31.18,14.71,6.56,3.47,12.51,8.06,19,11.61a159.87,159.87,0,0,1,21.4,14.45c6.36,4.95,12.48,10.05,17.73,16.21,3.4,4,7.32,7.56,11.07,11.25,6.44,6.34,12.77,12.77,17.63,20.45,1.07,1.7,2,1.91,3.89,1.14a206.7,206.7,0,0,1,34-11.11c9.13-2,18.35-3.47,27.65-4.63,11.86-1.48,23.77-1.38,35.65-1.93,8.44-.39,17,1.27,25.47,1.86a152.74,152.74,0,0,1,16.65,1.72c10.82,2,21.69,3.61,32.13,7.31a166.34,166.34,0,0,0,23.56,6.41c5.79,1.13,11,3.91,16.46,5.9,7,2.54,14,5.24,20.86,8a65,65,0,0,1,8.49,4.09c4,2.36,4.41,6.27.93,9.6-7.49,7.16-16,13.11-24,19.67-5.07,4.15-10,8.4-14.1,13.61-1.35,1.72-.23,2.47.7,3.19,4.67,3.63,8.55,8.21,13.13,11.79,7.94,6.2,13.58,14.25,19.65,21.94,4.07,5.16,8,10.57,10.22,16.94,1.33,3.75.51,6-3.13,7.69-6.45,3-13.44,4.49-20,7.24-6.7,2.83-14,4.31-20.09,8.54-.49.34-1.28.21-1.93.35-3.74.79-5.34,4.21-3.07,7.19a105,105,0,0,1,17.1,33.23c1.08,3.56,2.94,8.76-1.35,12.68a3.62,3.62,0,0,1-2.61,1.1c-13.13.66-26-1.36-38.68-4.3-14.12-3.26-27.43-8.91-40.75-14.46-13.15-5.47-26.41-10.7-39.43-16.46-11.74-5.2-22.27-12.51-32.61-20-7-5.11-13.93-10.37-21.17-15.78,0,5,.12,9.65,0,14.32a258.47,258.47,0,0,1-4.61,42.21c-2,10.23-3.87,20.49-6.14,30.67a5.8,5.8,0,0,0,.13,3.58c3.48,6.84,3.1,14.71,5.86,21.68,1.83,4.63,1.6,9.3,1.52,14-.1,5.76,1.07,11.42.9,17.21-.33,11.77-3.79,22.85-7.33,33.86-2.56,8-5.31,16-9.39,23.27-2.55,4.52-6.76,8.32-9.52,13-2.89,4.84-7.17,8.33-11.33,11.92-2.21,1.91-1.22,2.89.59,4a204.87,204.87,0,0,1,35,27.67c10.72,10.57,18.67,23.21,27,35.63,11.08,16.6,18.19,35.11,25.38,53.48a163.91,163.91,0,0,1,8,28.2c.58,3,1.27,6,2,8.91,1,4-.61,6.35-4.67,6.41a145.81,145.81,0,0,1-20.73-1.29A222.17,222.17,0,0,1,1289,924.2c-5.59-1.37-11.11-3.08-16.62-4.76-2.27-.69-3.3-1.17-2.92,2.28.87,8.1,1.19,16.3,2,24.38s2.15,16.39,1.92,24.71c-.14,5.58-.49,6-5.88,6.07-9.73.17-19.38.1-28.75-3.18-10.53-3.69-20.55-8.3-29.36-15.25-1-.78-2-1.45-3.3-.94-1.5.6-1,2-1.11,3.16-.23,4.7,2,9.1,1.5,13.89-.64,6.14.2,12.38-1.45,18.5-1.45,5.34-3.7,7.08-9.15,6.5a65.64,65.64,0,0,0-7.29,0c-4.64,0-6.39,2.22-4.76,6.66,3.22,8.79,5.26,17.89,7.67,26.89,2.9,10.9,6,21.7,7.4,33,.55,4.5,2.73,8.85,2.2,13.61H1028.47c-.07-1.3.12-2.56-.77-3.81-3.17-4.43-5.53-9.35-8-14.17-9-17.42-17.66-35-21.75-54.33-1.85-8.76-4.41-17.31-6.7-25.94-1.31-4.93-1.55-5-6.33-3a25.54,25.54,0,0,1-3,.83L945.63,989c-4,1.09-8,2.4-12.07,3.19-11.5,2.22-23,4.49-34.58,6.18-5.76.84-11.73,2-17.41,1.63-7-.44-13.93-.27-20.89-.45-10.07-.26-20-1.28-29.52-4.8-1.38-.51-2.56-1.86-4.44-1.46,0,1.81-.08,3.56,0,5.3.68,12.91,2.21,25.76,2.47,38.7a60.72,60.72,0,0,0,1.2,8.2c1.82,11.35,4.85,22.54,4.41,34.18h-4c.19-1.36-.83-2.39-.89-3.79-.38-8.59-2.74-16.9-3.5-25.49-.85-9.57-3.28-19-2.08-28.74a17.9,17.9,0,0,0,0-4.85c-.93-5.93-1.18-11.9-1.58-17.87-.49-7.44,1.19-14.63,1.76-21.94.54-7,2.15-14,3.33-21,1.21-7.26,5-13.74,6.4-20.94.64-3.26-.28-4.31-3.3-3.17-3.62,1.37-7.91,1.08-10.83,4.29-.63.69-1.6.26-2.2-.25-2.82-2.38-6.49-2.63-9.7-4-1.19-.5-2.37-.82-3.34.07-3.72,3.41-8.21,6.38-9.61,11.51-3.31,12.09-8.84,23.48-11.16,35.86s-4.87,25-5,37.76c-.07,6.11-.91,12.21-1.37,18.32a372.63,372.63,0,0,0-1.19,44.2H770.8q-.45-18.74.89-37.43c.68-9.63,2.11-19.2,3.32-28.78.12-.89.31-1.61-.53-2s-1.22.46-1.57.93c-1.23,1.69-2.26,3.53-3.55,5.16-4.7,6-9.74,11.66-14.14,17.82-6.76,9.49-12.51,19.64-18.25,29.77-2.53,4.46-5.16,9.08-5.07,14.53Zm227.71-162.8c-.49,3.8-.11,4.07,3.72,2.57a8.53,8.53,0,0,0,2.11-1.12A103.92,103.92,0,0,1,925.28,909c.5-.28.8-.94,1.27-1.52a8.17,8.17,0,0,0-7.23,1.63c-3.17,2.32-6.33,4.67-9.67,6.72-1,.58-1.83,2.6-3.57,1.14,3.9-4.15,9-6.73,13.57-10.1-3.93-1.64-6.58.8-9.54,2.09-1-1,.95-1.39.46-2.42-1.51,0-3.2-.33-4.68.09-2,.57-3.47,1.65-5.51-.75-1.33-1.55-3.75-.77-3.06,2.34-1.35-1.21-2.7-.72-3.9.14-2,1.47-3.95,3.1-6,4.6-4.49,3.35-9,6.64-13.5,10-1,.77-2.64,1.93-1.67,3.22,1.14,1.5,2.22-.16,3.27-.93,4.39-3.2,9-6.1,13.2-9.55,2.91-2.41,6.9-3.71,8.47-7.6,1.35.07,2.94-.57,3.73,1.17L879.13,924.5c4.25,1,6.68.27,9.16-1.91,1.87-1.64,3.54-4.05,6.53-4.08-.77,2.86-4.15,3.22-5.68,5.87,5.06-.93,9.87-1.32,13.27-5.54A4.36,4.36,0,0,1,906.13,916.87ZM876.94,913c-1.17-.88-.19-1.24.41-1.68,2.35-1.73,4.75-3.43,7.06-5.22.63-.5,1.92-1,1.14-2.13a1.88,1.88,0,0,0-2.84-.4c-1.58,1.36-3.75,1.31-5.3,2.33a116.76,116.76,0,0,0-10.91,8.28c-1.09.93-2.4,2.8-1,4.19,1.12,1.15,2.25-.78,3.3-1.3,2-1,3.69-2.6,5.62-3.76.7-.42,1.55-1.74,2.61-.36,0,1.63-1.44,2.1-2.39,3a61.86,61.86,0,0,1-9.67,7c-1.15.68-3,2-1.74,3.38,1,1,3.25.95,4.69-.57,1.08-1.14,1.52-2.7,3-3.66,6-3.94,11.82-8,17.71-12.08,2-1.39,5.86-3.26,4.32-5.15s-4.93.63-7,2.49C883.22,909.66,880.53,912,876.94,913Zm263.44,48.46c-.31.33-.28.62.15.8.09,0,.24-.07.36-.11l-.61-.62c.13-1.07-.65-1.67-1.18-2.45-5.81-8.62-13-16.19-18.56-25-3.1-5-5.87-10.14-9-15.09a292.77,292.77,0,0,1-21.26-41.1,72.86,72.86,0,0,1-2.33-7.92c-.78-2.62-2.48-3-4.51-1.48-6.63,4.85-14.33,7.22-22,9.75-8.63,2.86-15.9,7.18-16.65,17.52-.08,1.09-1.49,2.66.51,3.45,4.41,1.72,8.2,4.76,13,5.7,6.49,1.27,12.33,3.35,14.66,10.65,1,3.24,4.73,4.07,8.07,2.5,4.06-1.9,11.32,1.9,10.39,6-1.34,5.9,2.21,8.3,5.77,10.64q17.44,11.45,35.3,22.26C1135,958.48,1137,961.23,1140.38,961.41Zm-31.81-444.69c-1.68,3.69-1,7-.85,10.57.69,14.89.07,29.81.76,44.73.56,12-.77,24.07-1.19,36.11-.1,2.73.8,5.47-.19,8.22-.46,1.27-.72,2.78-2,3.32-1.42.61-2.1-1-2.81-1.79a234.19,234.19,0,0,1-20.85-27.76c-5.41-8.66-9.79-18-15.12-26.67-7.5-12.26-14.62-24.77-19.68-38.15q-5.16-13.65-11.15-26.88c-6.13-13.47-10.76-27.43-15-41.53-.57-1.9-1-2.17-2.7-2.27-7-.4-13.94.45-20.86,1-3.05.25-8-.42-7.49,5.24.84,9.84-1.12,19.59-.81,29.41.17,5.25-.09,10.52.06,15.78.23,8.32-.52,16.65.58,25,.44,3.37,1.46,7,.66,10.26-.85,3.45,0,4,3,4.05,11.58.19,22.38,3.84,33,7.84,16.31,6.14,27.71,18.09,37.48,32a123.2,123.2,0,0,1,17.3,36.06c2.72,9.18,5.34,18.33,4.41,28.07a18.49,18.49,0,0,0,.44,3.11c.53,6.92,1.32,13.88,1,20.77-.28,5.72-1.84,11.4-3.1,17-1,4.63-1,9.84-5.88,12.78-1.16.71-1.94,2.8-3.61,1.49-1.45-1.13-.91-2.77-.3-4.39a72.33,72.33,0,0,0,4.41-27.76c-.07-2.66-.91-5.37-.61-8a103.64,103.64,0,0,0,0-22.82c-1.19-11.79-3.74-23.2-9-33.86-4.1-8.34-10.38-15.44-14.81-23.46-6.33-11.47-17-17.17-27.3-23.07a78.38,78.38,0,0,0-30.92-9.94c-3.9-.4-4.53-.08-4.66,4.06,0,1.6.92,3.76-1.49,4.49-2,.62-3.61-.46-4.93-2-.71-.81-1.62-1.46-2.25-2.33-2.37-3.26-5.47-3.38-8.92-2.2-1.63.57-3.31,1-4.88,1.72-2,.91-4,2-5.24-.87s1.1-3.47,3.1-4.4c2.16-1,5.86.38,6.4-2.32.43-2.15-2-4.46-3.44-6.52-.31-.43-.5-1-.83-1.37-7.27-9.14-14.3-18.46-18.27-29.59-3.79-10.64-9.14-20.59-13.32-31.06-5.87-14.74-8-30.49-12.9-45.51-3.72-11.54-4.95-23.6-7.26-35.44-1.43-7.37-3.71-14.62-3.2-22.24.24-3.48-1.12-6.64-1-10.17a8.25,8.25,0,0,0-4.44,3.14c-2.49,3.13-4.72,6.77-7.89,9-4.44,3.15-8.13,7.07-11.85,10.8a270.85,270.85,0,0,0-21.24,24c-6.64,8.45-13.55,16.7-19.79,25.44-5.13,7.19-9.4,15-14.76,22.07-1,1.37-.89,2.41,1,3.32a56,56,0,0,1,14.3,9.39c1.41,1.33,2.24,2.61,1.3,4.57-6.89-1.51-11.58-6.83-17.44-10.1-2.44-1.36-3.16-1-4.24,1.08-2.78,5.31-5.83,10.48-8.45,15.88-6.44,13.28-14.39,25.8-19.95,39.52-2.3,5.68-5.68,10.78-8.44,16.21-.49,1-1.53,1.78,1,2.37,4.32,1,8.73.12,13,1.39,4.5,1.34,9.19,2,12.9,5.31.74.66,1.57,1.21,1.51,2.17-.09,1.42-1.52.54-2.2,1-.85.59-1.63.22-2.56.11-5.55-.66-10.65-3.21-16.25-3.65-3.5-.27-7.08-.67-10.45.1-2.34.53-1.71,3.63-2.67,5.47-.62,1.17-1.45,2.25-2.56,2.27-1.38,0-2.3-1.4-2.88-2.52-2.19-4.28-3.23-4.47-7.83-3-7.41,2.37-12.7,7.68-18.51,12.34-5.27,4.22-10.14,8.93-13.51,14.67-4.33,7.35-9.63,14.08-13.51,21.67-3,6-7,11.62-8.49,18.2-3.39,14.94-6.12,30-5.29,45.46.06,1.15,1.2,3.34-1.34,3.44-2.1.09-4.34-.92-4.65-3-.49-3.27-1.86-6.64-.91-9.89,1.28-4.42.9-9,1.35-13.4,1.43-14.14,6.08-27.23,11.95-39.93A133,133,0,0,1,738,569.62c9.35-11,19.51-20.75,34.48-23.65,2.38-.46,4.06-2.24,3.87-5.33-.26-4.27-.67-8.58-.67-12.82a206.17,206.17,0,0,1,1.49-28c1.35-9.65.14-19.7,4.17-29,.38-.87.31-2.68-.24-3-.82-.55-2.2-.22-3.33.3a5.92,5.92,0,0,0-2.94,2.61C766,488,755.5,504.36,747.11,521.91c-5.43,11.36-12.29,22-16.59,34-3.62,10.1-8.68,19.62-12.75,29.57-3.86,9.43-6.09,19.45-10.47,28.58-3.66,7.62-7,15.17-8.69,23.51-1.91,9.58-3.59,19.16-5,28.85-2,14.47-4.73,28.83-4.84,43.52-.07,8.73,1.42,17.38,1.36,26-.09,13.43,3.45,25.64,9.5,37.33,2.17,4.18,4.92,8.07,7.09,12.25,4.88,9.36,11.92,16.9,19.16,24.44,11.85,12.38,26.32,21.71,38.07,34.31A80,80,0,0,0,790.71,863c8.52,3.67,15.92,9.51,24.68,13,18.55,7.47,37.89,12.29,56.94,18.06,7.2,2.18,14.65,2.38,22,3.33,10.26,1.31,20.46,3.45,30.87,3.27,6.83-.11,13.65-.16,20.5-.53,10.4-.57,20.75-1.31,31.13-2.34a195.18,195.18,0,0,0,42.92-9c19.59-6.56,38.87-14,56.72-24.51,8-4.75,16.2-9.38,23.66-15.13,9.32-7.18,17.22-15.9,27.28-22.45,8.92-5.82,17-13.32,24.75-21,7.12-7,13.45-14.82,20.27-22.15a44.23,44.23,0,0,0,10.27-16.72,40.42,40.42,0,0,1,5.89-11.78c1-1.3,2.1-2.15,3.75-1.66s1.46,2,1.44,3.34c0,5.42-2.55,9.9-5.43,14.23-.89,1.35-2.81,2.47-.93,4.37,1.52,1.53,2.95,2.9,5.54,2a77.65,77.65,0,0,1,8.34-2.1c12.64-3.09,25.29-6.09,35.87-14.43a39,39,0,0,0,6.1-6.15c5-6.08,8.37-13.19,12.88-19.57,9.69-13.69,14.07-29,14.31-45.7.18-12.87-.57-25.68-1.55-38.49a37.56,37.56,0,0,0-9.16-22.59c-5.91-6.84-13.49-8.32-21.6-9.26-1.68-.19-2.48.49-3.12,2.28-2.45,6.9-3.62,14.16-6.55,21-1.58,3.68-4,.88-5.57,2.17s-2.41-.39-2.84-1.18c-3.86-7.19-8.74-13.81-11.62-21.57-3.66-9.84-6.47-19.93-9.59-30a6.44,6.44,0,0,0-.18,2.84c1.95,8,1.06,16.3,1.22,24.36.23,11.28-1.91,22.62-3.27,33.91-.5,4.12-.25,8.45-2.74,12.21-.86,1.3-1.5,2.65-3.24,2.46a20.33,20.33,0,0,1-8.2-2.51c-6.07-3.6-9.53-9.75-13.85-15-6.48-7.86-11.87-16.53-17.2-25.2-3.26-5.29-6.65-10.55-9-16.32-3.9-9.59-7.47-19.3-11.33-28.9-2.44-6.1-5.25-12-7.72-18.14-4-9.81-5.83-20.26-9.07-30.28C1112.72,526.4,1112.09,521.12,1108.57,516.72Zm129.5,96.45a33.54,33.54,0,0,1,4,0c7.64.9,15.23,2,21.44,7.19.45.37.79,1.15,1.64.57s.59-1.38.73-2.15c.78-4.45,1.2-9,2.52-13.29a132.3,132.3,0,0,0,6.06-41.62c-.16-8.46.71-16.95-.29-25.45-1-8.31-1.28-16.71-2.85-25-1.95-10.19-5.21-20-8.42-29.85a339.19,339.19,0,0,0-13.16-34.27c-4.36-9.7-10.29-18.55-15.91-27.53a91.05,91.05,0,0,0-14.71-17.24c-6.56-6.24-13.38-12.23-19.85-18.52-5.55-5.4-10.87-11-16.78-16.09a9,9,0,0,0-1.39-1.17c-5.83-3.34-11.86-6.42-17.33-10.28-9.59-6.77-20-12.06-30.38-17.32-9.68-4.89-19.84-8.76-29.58-13.46-11.56-5.58-22.86-11.34-35.17-15.46-13.17-4.41-26.65-7.46-39.91-11.38-14.11-4.18-28.73-5.15-43.33-5.6a185.65,185.65,0,0,0-24.15.5c-7.68.77-15.43.27-23.15,1.71-12.2,2.29-24.7,2.44-36.73,6.35-7.69,2.5-16.11,3.12-23.83,5.39-13.41,3.94-26.79,8.19-39.27,15-10.64,5.78-21.58,10.91-31.6,17.85a212.12,212.12,0,0,0-20,15.91c-7.69,6.84-14.53,14.63-22,21.7A134.09,134.09,0,0,0,751.69,394c-15.27,19.23-27.57,40.35-39,62-1.65,3.15-2.67,6.65-4.52,9.66-2.36,3.85-1.75,8.49-3.86,12.32a65.32,65.32,0,0,0-4.12,9.8c-3.33,9.34-5.56,19-8.25,28.5-2.34,8.32-4.26,16.76-3.89,25.56.44,10.48-.66,20.94-1,31.4-.22,6.75-.65,13.38.81,20-.16-3.15,1.38-5.95,1.74-9a152.4,152.4,0,0,1,8.35-35c1.83-5,4.11-9.87,5.56-15,3.08-10.91,5.88-21.91,9.35-32.69,3-9.39,7-18.46,10.44-27.73,2.61-7.1,6.13-13.76,8.78-20.82a6.61,6.61,0,0,1,7-4.6c-26,55.69-42.52,113.39-42.32,175.21,19-50,40.2-99,68.31-146-9.48,2.5-14.55,8.58-19.39,14.74-3.63,4.62-7,9.1-13.85,7.89,3.49-4.74,8.14-8.38,12.11-12.65a91.16,91.16,0,0,1,25.94-19.87c1.92-1,2.93-2.59,3.89-4.39,3.4-6.43,6.66-13,11.16-18.71a38,38,0,0,0,5.12-8.59c2.87-6.68,6-13.27,9-19.88,3.32-7.31,6.47-14.73,10.55-21.74,8.08-13.9,14.83-28.63,26.17-40.4,1-1.06,1.91-3.45,4.16-1.48s1.37,3.36-.5,4.89c-5.78,4.73-9.76,10.86-13.31,17.29-7.44,13.48-15.21,26.78-22,40.63-1.34,2.74-3.66,4.94-4.27,8.07-1.53,7.85-5.86,14.68-8.24,22.21A54.57,54.57,0,0,1,785.12,459c12.31-3.12,23.94-4.2,35.46-.91,3.88,1.11,6.14-.12,8.25-2.77,3.13-3.93,6.12-8,9.21-11.91,4.26-5.44,6.89-11.89,10.77-17.52,7.22-10.45,15.69-20,24.31-29.26q16.73-18,33.36-36a6.31,6.31,0,0,1,2.43-2c2.38-.69,3.43-2.32,4-4.51.4-1.41,1.47-2.5,2.12-3.74,1.46-2.79,2.43.5,3.86.1s1.09,1.61.77,2.39c-3,7.34-.88,14.91-.25,22.15a245.07,245.07,0,0,0,4.36,29.74c3.11,14.63,5,29.55,11.07,43.42a6,6,0,0,1,.39,2.73,22.51,22.51,0,0,0,1.59,8.54c4.85,14.22,8.7,28.81,14.93,42.51,3.4,7.49,6.46,15.23,11.61,21.86,3.5,4.51,7.13,9,9.81,14a22.17,22.17,0,0,0,5.11,6.51c2.12,1.83,3.84,1.53,4.39-1.52a23.88,23.88,0,0,0,.37-3.57c.17-5.64-1.18-11.19-.84-16.86q.69-11.43.82-22.88c.16-13.1-.33-26.23,2.4-39.18.43-2.07-.14-3.22-2.61-1.81-4.27,2.43-8.75,4.49-12.22,8.14a35.38,35.38,0,0,1-5.68,5c-1.14.79-2.44,1.31-3.24.58-1.06-1-.5-2.25.41-3.49,5.21-7.1,12.45-11.47,20.33-14.72,3-1.26,3.9-2.71,4-5.81.14-7.45,1.31-14.83,1.62-22.3.55-13.18,1.84-26.32,3.6-39.4,1.22-9.08,1.81-18.25,3.79-27.21.63-2.83,2.56-5.35,2.23-8.42-.38-3.55.93-5.67,4.76-5.93.86,7.8,2.12,15.63,2.8,23.58,1,11.39,4.66,22.41,6.93,33.64,2.93,14.56,7.09,28.87,10.65,43.31.81,3.28,2.91,4.63,6,4.3,4.85-.52,9.24,1,13.48,2.89,9,4,18.17,7.93,26.87,12.72,7.69,4.23,15.51,8.1,22.11,14.14,2.22,2,4.26,5,8,5.55,0-2.54.35-4.88,0-7.1-3.19-17.92-3.4-36.22-7.31-54.09-1.85-8.47-3.21-17.09-5.11-25.58-1.48-6.6-2-13.81-5.81-19.37-4.64-6.86-1.1-12.38.57-18.43a35.32,35.32,0,0,0,3.32,11c4.75,9.08,5.6,19.22,8.18,28.83a188,188,0,0,1,6,30.73c.68,7,1.87,14,2.47,21a216,216,0,0,0,4.06,28.35c1,4.62,2.1,9.45,4.38,13.5s5.17,8.19,9.14,11.16c1.2.91,2.42,2.24,1.75,3.73-.75,1.7-2.59.86-4,.75-.5,0-1-.5-1.47-.64-.72-.19-1.45-1.08-2.19-.39-.91.84.06,1.65.23,2.5.68,3.47,2,6.75,2.86,10.18,3,12.36,7.37,24.33,11.87,36.23,3.53,9.32,7.32,18.55,10.42,28a176.6,176.6,0,0,0,11.66,26.65,143.7,143.7,0,0,0,13.55,21.71c7.68,9.89,14.69,20.39,26.09,26.91-1.09-2.29,1.35-3.52,1.53-5.55,1-10.73,2.67-21.39,2.45-32.23-.2-9.44.38-18.91-.17-28.32-.67-11.53-2.38-23-3.33-34.51-.43-5.13-.16-10.31-1.16-15.47-1.46-7.55-1.86-15.3-2.84-22.93-.83-6.46-1.51-13.09-2.8-19.41a486.78,486.78,0,0,0-13.59-51.06c-2.13-6.66-5.27-12.89-7.07-19.74-1.33-5.07-2.75-11-8.82-13.51-1.46-.59-.51-1.47.06-2.21,2.33-2.94,6-1.69,8.18,3a258.09,258.09,0,0,1,13.53,35.25c3.59,12.15,6.89,24.39,9.43,36.75,2.24,10.87,5.67,21.48,6.93,32.57,1,8.55,3.59,16.88,3.33,25.62-.2,6.51.13,12.9,2.24,19.28,4.69,14.19,7.12,29.06,13,42.92,3.13,7.42,5.56,15.15,9.94,22,.8,1.24,1.47,3.67,3.12,3a6.57,6.57,0,0,0,3.73-4.45c2.65-10.53,5.12-21,6.26-31.91,1.18-11.25,2.18-22.49,2.91-33.76.42-6.56-.77-13.08-1-19.65a125.13,125.13,0,0,0-1.66-17.4c-1.74-10.1-2-20.5-5.3-30.31-.86-2.58-.53-4.52,2.07-4.91,2.43-.37,2.34,2.48,3.28,3.95.26.4.09,1.06.18,1.59,1.26,7.82,2.75,15.62,3.74,23.48,1,7.62,2.75,15.15,2.74,22.89,0,13.58,0,27.15-.74,40.72C1239.56,595.31,1238.77,604.15,1238.07,613.17Zm-37,349.14a46.57,46.57,0,0,0,0-5.11c-.36-3,.8-3.9,3.84-3.93a24.92,24.92,0,0,1,11.16,2.8c9,4.25,16.52,11.33,26.89,13.09,7.19,1.22,14,4.3,21.66,3,3.16-.55,4.34-2,4.29-4.59-.08-4.13-.53-8.26-1-12.37-1.22-10.67-3.29-21.29-3.49-32-.17-9,4-9.74,10.58-8.41,8.45,1.72,16.78,4,25.17,6.08,9.38,2.3,19,2.1,28.55,2.59,2.7.13,3.85-1.23,3.56-3.93-.7-6.48-2.55-12.73-4.44-18.89a158.18,158.18,0,0,0-6.68-17.73c-5.91-13.31-9.69-27.47-17.67-40-8.68-13.6-17-27.4-28.06-39.24-11.58-12.35-25.25-22.08-39.18-31.49-.8-.55-2-1.61-3.24-.42-2.5,2.34-5.92,2.87-8.86,4.34-7.16,3.59-14.3,7-22.63,7.48-4.17.24-8.38,1.46-12.65,1.79-7.19.56-11.22,6.38-16.2,10.29-5.86,4.61-10.91,10.3-16,15.83-1.5,1.63-4,1.43-5,3.65-2.68,5.63-8.27,8.72-12.57,12.71-7.69,7.13-15.93,13.77-23.85,20.71-5,4.33-9.78,8.49-16.25,10.51-5,1.55-5.55,3.24-4.19,8.31.1.38,0,.8.11,1.19,1.07,5.7,1.26,11.46,4,16.92,5.28,10.48,11.58,20.3,17.74,30.25,4.94,8,9,16.58,14.78,24,4,5.1,8.24,10,11.53,15.61a86.51,86.51,0,0,0,12,15.38c8.59,9.07,19,15.82,30.31,21,3.11,1.43,6.28,2.85,9.85,3,2.75.1,4.87-1.49,5-3.66.33-5.44,2.35-10.59,1.94-16.19C1201.69,970.46,1200.3,966.12,1201.06,962.31Zm42.29-538.73c2.85,3.37,4,7.49,6.31,10.88,8.65,12.41,14.16,26.36,18.32,40.65,5.08,17.4,10.47,34.84,11.77,53.14a6.56,6.56,0,0,0,2.51,4.82c5.45,4.22,10.67,8.74,16.23,12.81,11.57,8.48,23.22,16.87,36,23.6,10.81,5.72,22.78,8.68,33.64,14.47a123.56,123.56,0,0,0,19.28,8.08c10.27,3.39,20.5,6.74,31.26,8.65,10.29,1.82,20.39,4.52,30.93,4.59,2.82,0,4.69-2.4,3.66-5-5.35-13.48-10.69-26.93-19.74-38.55-4-5.08-3.68-5.31,2.62-7.48.74-.26,1.43-.68,2.16-1,9.89-3.88,18.74-10.08,29.08-13a53.67,53.67,0,0,0,10.65-3.87c2.47-1.29,4-2.45,2.27-5.79-4.83-9.43-12.43-16.85-18.18-25.64-4.52-6.9-11.35-12.2-18.33-16.87a27.43,27.43,0,0,1-5.3-4.88c-3.3-3.74-3.1-5.7.7-8.93,8.26-7,16.48-14.11,24.88-21,3.87-3.16,8.45-5.44,12-9,2.93-2.89,2.37-3.58-1.22-5.37-5.84-2.91-12.46-3.41-18.2-6.35-12.32-6.33-25.49-10.23-38.85-13.44-13.17-3.17-26.35-6.31-39.77-8.49a277.89,277.89,0,0,0-38.47-3.74,248.25,248.25,0,0,0-27,.59c-6.23.54-12.52.92-18.64,2C1276.74,412.49,1259.81,416.63,1243.35,423.58Zm-442.11-82c-1.36-1.69-3.52-.46-4.16-2.13-1.15-3-3.84-3.27-6.4-4.12a67.69,67.69,0,0,0-15.53-3.63c-7.59-.63-15.25-2.05-22.75-1.47-6,.47-12.16,1-18.19,2-8.43,1.34-16.73,3-24.59,6.54-2.61,1.17-3,2.33-1.42,4.6,1.76,2.63,3.37,5.36,4.93,8.11,3.88,6.87,9.12,13,11,21,.72,3,0,4.63-2.6,5.71a130,130,0,0,1-14.15,5.09c-13.25,3.82-24.58,11.11-36.07,18.23-2.53,1.57-2.42,3.27-.32,5.51,3.4,3.62,7.51,6.6,10.23,10.87s2.58,5.28-1.54,8.12a71.93,71.93,0,0,0-18.76,19.38c-1.39,2.08-1.45,3.64.52,5.14,3.54,2.71,6.93,5.6,10.88,7.77,7.37,4.06,15.79,4.38,23.57,7,2.67.89,5.24,0,7.58-2.36,3.08-3.1,3.9-7.19,6-10.7,6.82-11.61,13.38-23.37,20.17-35,2.75-4.69,5.44-9.51,8.86-13.7,8.35-10.19,17.46-19.76,25.3-30.39a41,41,0,0,1,3.74-4.66c4-4,8.29-7.76,12.14-11.92a23.16,23.16,0,0,1,4.46-3.89ZM721.42,879.46c-.85,5,.75,10.78.82,16.68a9.41,9.41,0,0,0,3.21,6.57c1.79,1.65,3.31-.8,5-1.17a20.08,20.08,0,0,0,3.26-1.39c6.9-2.93,12.69-7.84,19.63-10.81a91.19,91.19,0,0,0,16.12-8.94c2.86-2,3.28-.93,4.53,1.26a76.56,76.56,0,0,1,8.55,23.89c1.61,8.46,6.94,15.46,7.76,24a7.63,7.63,0,0,0,1.58,3.1c1.11,1.66,2.5,2,3.93.4,1.07-1.19,2.44-2.23,2.77-3.9.53-2.72,2.48-3.39,4.78-3.26,2.45.15,3.74-.84,5-2.95a113.25,113.25,0,0,1,11-14.68c4.42-5.17,9-10.47,12.21-16.66.84-1.64,1.41-2.32-1.14-3.25-8-2.87-15.81-6.15-23.56-9.59-10.68-4.73-20.32-11.38-30.51-17-6.92-3.85-14.32-7.58-18.75-14.15-6.38-9.45-15.3-16.13-23.4-23.65-9-8.4-17.84-16.9-25.72-26.43-1.91-2.3-2.78-8-6.86-6.06-2.95,1.36-4.35,5.9-5.87,9.35-4.48,10.17-8.16,20.67-13.17,30.61a31.94,31.94,0,0,0-2.74,9.5c-.86,5.33-.64,10.86-2.76,16-.78,1.89,1.91,4.4,3.86,3.67,7.16-2.68,14.56-4.91,21.3-8.42,5.59-2.91,11.58-4.52,17.24-7.08.85-.38,2.67-.94,2.63,1.16-.08,3.75,1,7.54.67,11.15C722.18,864.41,721.21,871.4,721.42,879.46Zm316.19,9.63a143.35,143.35,0,0,1-25.09,8.63c-12.25,2.9-24.77,5-36.68,8.89-17.29,5.7-35.15,9.13-52.56,14.32-6.48,1.93-13.42,2.27-20.08,3.86-9.85,2.35-19.7,4.69-29.92,5.25-4.36.24-9,.67-12.86,3.52a4.06,4.06,0,0,1-5.65-.3c-1.55-1.59-2.74-1.23-3.76.64-1.53,2.79-3.23,5.49-4.7,8.31C843.83,947,844.61,950,849,953c7.07,4.84,14.72,7.78,23.47,7.37,6.84-.32,13.69-.42,20.53-.77,7.46-.4,15-.53,22.36-1.57,12.81-1.81,25.69-3.1,38.46-5.32a217.19,217.19,0,0,0,48.86-14.88c11.38-4.92,21.27-12.73,32.06-18.85,1.84-1,3.63-3,2.67-5.35C1034.16,905.55,1037.92,897.73,1037.61,889.09Zm62.22-390.47c-.45-2.6,1.43-5.62-1.53-7.86-13.15-10-26.77-19.15-41.7-26.28-3-1.44-6.11-2.68-9.11-4.11-6-2.87-13.25-2.43-18.63-7a1.65,1.65,0,0,0-1.51-.15c-.83.48-.65,1.5-.45,2.18,3,10.49,5.78,21.1,9.39,31.4,3.4,9.74,8.43,18.88,12.2,28.46,4.27,10.87,9.61,21.15,14.89,31.48,4.6,9,9.75,17.71,14.57,26.6,1.18,2.19,1.65,4.83,3.06,6.85,5.7,8.17,12.4,15.66,16.79,24.72.28.56.37,1.37,1.3,1.26s.77-.91.92-1.52a12.59,12.59,0,0,0,.69-2.68c.26-10.17,2-20.25,1.59-30.46-.17-4-.57-8.19.13-12.11a67.63,67.63,0,0,0,.44-18.45C1101.52,526.86,1102.27,512.63,1099.83,498.62ZM779.89,535.78c.17,2.17.49,5.63.71,9.1.08,1.21.58,2.4,1.65,2.42s1.49-1.37,1.45-2.3c-.18-4.2,1.94-7.59,3.8-11,5.79-10.76,11-21.82,16.4-32.79,5.58-11.41,10.85-22.95,18-33.44,2.36-3.45.79-4-2-5.15-5.34-2.16-10.78-.57-16.11-1-6.13-.48-11.4,1.69-17,3.14-1.17.3-2.55.73-2.39,2.26.72,7.15-1.51,14-2.31,20.94C780.38,503.39,781,519,779.89,535.78Zm220.88-160.55a5.36,5.36,0,0,0-2.31,3.92c-.5,2.48-.58,5-.87,7.48-1.11,9.43-2.65,18.81-3.74,28.24-1.14,9.92-1.85,19.9-2.94,29.83-.67,6.13-.32,6.53,5.71,5.27,1.55-.33,3.23,0,4.83-.19,4.08-.4,8.14-1,12.22-1.33,2.82-.24,3.25-1.33,2.17-3.87a43.32,43.32,0,0,1-2.38-8C1009.22,416.21,1004.16,396,1000.77,375.23ZM810.5,928.84c3.46.73,6.61,1.8,9.71.79a79.22,79.22,0,0,0,8.61-3.79c9.2-4.29,18.88-7.16,28.62-9.84,2.39-.65,3.27-1.87,3.21-4.25-.11-3.77-.09-7.54,0-11.31.05-2.59-.93-3.91-3.65-4.24-5.66-.67-11-2.62-16.31-4.62-2.27-.87-3.29-.49-4.33,1.65a103.09,103.09,0,0,1-5.72,10.48C825,912.71,817.79,920.54,810.5,928.84Zm55.7-17.48c3.71-1.6,6.24-4.06,8.78-6.55,1.1-1.08.84-1.58-.19-2.4s-2-1.48-2.59-.21c-1.69,3.64-2.5,1.51-3.54-.34-.3-.54-.72-1.25-1.54-1a1.16,1.16,0,0,0-.59,1.67C868.14,905.47,866.3,908.2,866.2,911.36Z"/><path class="cls-1" d="M834.81,1079.67c.44-11.64-2.59-22.83-4.41-34.18a60.72,60.72,0,0,1-1.2-8.2c-.26-12.94-1.79-25.79-2.47-38.7-.09-1.74,0-3.49,0-5.3,1.88-.4,3.06,1,4.44,1.46,9.55,3.52,19.45,4.54,29.52,4.8,7,.18,13.91,0,20.89.45,5.68.36,11.65-.79,17.41-1.63,11.58-1.69,23.08-4,34.58-6.18,4.08-.79,8.05-2.1,12.07-3.19l36.24-9.79a25.54,25.54,0,0,0,3-.83c4.78-2,5-1.89,6.33,3,2.29,8.63,4.85,17.18,6.7,25.94,4.09,19.35,12.77,36.91,21.75,54.33,2.49,4.82,4.85,9.74,8,14.17.89,1.25.7,2.51.77,3.81Z"/><path class="cls-1" d="M776.47,1079.67a372.63,372.63,0,0,1,1.19-44.2c.46-6.11,1.3-12.21,1.37-18.32.14-12.81,2.68-25.26,5-37.76s7.85-23.77,11.16-35.86c1.4-5.13,5.89-8.1,9.61-11.51,1-.89,2.15-.57,3.34-.07,3.21,1.38,6.88,1.63,9.7,4,.6.51,1.57.94,2.2.25,2.92-3.21,7.21-2.92,10.83-4.29,3-1.14,3.94-.09,3.3,3.17-1.41,7.2-5.19,13.68-6.4,20.94-1.18,7-2.79,13.93-3.33,21-.57,7.31-2.25,14.5-1.76,21.94.4,6,.65,11.94,1.58,17.87a17.9,17.9,0,0,1,0,4.85c-1.2,9.74,1.23,19.17,2.08,28.74.76,8.59,3.12,16.9,3.5,25.49.06,1.4,1.08,2.43.89,3.79H825.9c-.7-5.77-1.11-11.59-2.14-17.3q-2.47-13.68-3.78-27.49c-1.24-13.14-.63-26.35-.84-39.52-.16-9.4,2.49-18.38,3.53-27.59.68-6,2.48-11.84,1.36-18-1,.17-1.12.8-1.24,1.48-2.32,12.74-6.1,25.23-5.92,38.37.16,11.46-.33,22.94.17,34.37.48,11,1.67,22,2.91,33,.86,7.6,2.32,15.14,3.52,22.7Zm49.65-134.92a6.25,6.25,0,0,0,1.76-7.17C825.84,940.54,825.84,940.54,826.12,944.75Z"/><path class="cls-1" d="M731.9,1079.67c-.09-5.45,2.54-10.07,5.07-14.53,5.74-10.13,11.49-20.28,18.25-29.77,4.4-6.16,9.44-11.86,14.14-17.82,1.29-1.63,2.32-3.47,3.55-5.16.35-.47.82-1.28,1.57-.93s.65,1.11.53,2c-1.21,9.58-2.64,19.15-3.32,28.78q-1.32,18.67-.89,37.43Z"/><path class="cls-2" d="M823.47,1079.67c-1.2-7.56-2.66-15.1-3.52-22.7-1.24-11-2.43-22-2.91-33-.5-11.43,0-22.91-.17-34.37-.18-13.14,3.6-25.63,5.92-38.37.12-.68.26-1.31,1.24-1.48,1.12,6.14-.68,12-1.36,18-1,9.21-3.69,18.19-3.53,27.59.21,13.17-.4,26.38.84,39.52q1.31,13.8,3.78,27.49c1,5.71,1.44,11.53,2.14,17.3Z"/><path class="cls-1" d="M1108.57,516.72c3.52,4.4,4.15,9.68,5.71,14.5,3.24,10,5.1,20.47,9.07,30.28,2.47,6.09,5.28,12,7.72,18.14,3.86,9.6,7.43,19.31,11.33,28.9,2.34,5.77,5.73,11,9,16.32,5.33,8.67,10.72,17.34,17.2,25.2,4.32,5.24,7.78,11.39,13.85,15a20.33,20.33,0,0,0,8.2,2.51c1.74.19,2.38-1.16,3.24-2.46,2.49-3.76,2.24-8.09,2.74-12.21,1.36-11.29,3.5-22.63,3.27-33.91-.16-8.06.73-16.33-1.22-24.36a6.44,6.44,0,0,1,.18-2.84c3.12,10,5.93,20.13,9.59,30,2.88,7.76,7.76,14.38,11.62,21.57.43.79,1.36,2.38,2.84,1.18s4,1.51,5.57-2.17c2.93-6.82,4.1-14.08,6.55-21,.64-1.79,1.44-2.47,3.12-2.28,8.11.94,15.69,2.42,21.6,9.26a37.56,37.56,0,0,1,9.16,22.59c1,12.81,1.73,25.62,1.55,38.49-.24,16.69-4.62,32-14.31,45.7-4.51,6.38-7.9,13.49-12.88,19.57a39,39,0,0,1-6.1,6.15c-10.58,8.34-23.23,11.34-35.87,14.43a77.65,77.65,0,0,0-8.34,2.1c-2.59.94-4-.43-5.54-2-1.88-1.9,0-3,.93-4.37,2.88-4.33,5.39-8.81,5.43-14.23,0-1.33.28-2.84-1.44-3.34s-2.79.36-3.75,1.66a40.42,40.42,0,0,0-5.89,11.78,44.23,44.23,0,0,1-10.27,16.72c-6.82,7.33-13.15,15.1-20.27,22.15-7.72,7.64-15.83,15.14-24.75,21-10.06,6.55-18,15.27-27.28,22.45-7.46,5.75-15.62,10.38-23.66,15.13-17.85,10.52-37.13,18-56.72,24.51a195.18,195.18,0,0,1-42.92,9c-10.38,1-20.73,1.77-31.13,2.34-6.85.37-13.67.42-20.5.53-10.41.18-20.61-2-30.87-3.27-7.34-1-14.79-1.15-22-3.33-19.05-5.77-38.39-10.59-56.94-18.06-8.76-3.52-16.16-9.36-24.68-13A80,80,0,0,1,764,844.27c-11.75-12.6-26.22-21.93-38.07-34.31-7.24-7.54-14.28-15.08-19.16-24.44-2.17-4.18-4.92-8.07-7.09-12.25-6-11.69-9.59-23.9-9.5-37.33.06-8.63-1.43-17.28-1.36-26,.11-14.69,2.81-29,4.84-43.52,1.36-9.69,3-19.27,5-28.85,1.67-8.34,5-15.89,8.69-23.51,4.38-9.13,6.61-19.15,10.47-28.58,4.07-10,9.13-19.47,12.75-29.57,4.3-12,11.16-22.63,16.59-34C755.5,504.36,766,488,774.79,470.69a5.92,5.92,0,0,1,2.94-2.61c1.13-.52,2.51-.85,3.33-.3.55.36.62,2.17.24,3-4,9.29-2.82,19.34-4.17,29a206.17,206.17,0,0,0-1.49,28c0,4.24.41,8.55.67,12.82.19,3.09-1.49,4.87-3.87,5.33-15,2.9-25.13,12.7-34.48,23.65a133,133,0,0,0-19.41,30.88c-5.87,12.7-10.52,25.79-11.95,39.93-.45,4.44-.07,9-1.35,13.4-1,3.25.42,6.62.91,9.89.31,2.07,2.55,3.08,4.65,3,2.54-.1,1.4-2.29,1.34-3.44-.83-15.46,1.9-30.52,5.29-45.46,1.5-6.58,5.44-12.24,8.49-18.2,3.88-7.59,9.18-14.32,13.51-21.67,3.37-5.74,8.24-10.45,13.51-14.67,5.81-4.66,11.1-10,18.51-12.34,4.6-1.47,5.64-1.28,7.83,3,.58,1.12,1.5,2.55,2.88,2.52,1.11,0,1.94-1.1,2.56-2.27,1-1.84.33-4.94,2.67-5.47,3.37-.77,7-.37,10.45-.1,5.6.44,10.7,3,16.25,3.65.93.11,1.71.48,2.56-.11.68-.47,2.11.41,2.2-1,.06-1-.77-1.51-1.51-2.17-3.71-3.31-8.4-4-12.9-5.31-4.26-1.27-8.67-.35-13-1.39-2.48-.59-1.44-1.39-1-2.37,2.76-5.43,6.14-10.53,8.44-16.21,5.56-13.72,13.51-26.24,19.95-39.52,2.62-5.4,5.67-10.57,8.45-15.88,1.08-2.06,1.8-2.44,4.24-1.08,5.86,3.27,10.55,8.59,17.44,10.1.94-2,.11-3.24-1.3-4.57a56,56,0,0,0-14.3-9.39c-1.88-.91-2-2-1-3.32,5.36-7.07,9.63-14.88,14.76-22.07,6.24-8.74,13.15-17,19.79-25.44a270.85,270.85,0,0,1,21.24-24c3.72-3.73,7.41-7.65,11.85-10.8,3.17-2.24,5.4-5.88,7.89-9a8.25,8.25,0,0,1,4.44-3.14c-.09,3.53,1.27,6.69,1,10.17-.51,7.62,1.77,14.87,3.2,22.24,2.31,11.84,3.54,23.9,7.26,35.44,4.85,15,7,30.77,12.9,45.51,4.18,10.47,9.53,20.42,13.32,31.06,4,11.13,11,20.45,18.27,29.59.33.41.52.94.83,1.37,1.47,2.06,3.87,4.37,3.44,6.52-.54,2.7-4.24,1.31-6.4,2.32-2,.93-4.38,1.4-3.1,4.4s3.23,1.78,5.24.87c1.57-.7,3.25-1.15,4.88-1.72,3.45-1.18,6.55-1.06,8.92,2.2.63.87,1.54,1.52,2.25,2.33,1.32,1.51,2.88,2.59,4.93,2,2.41-.73,1.45-2.89,1.49-4.49.13-4.14.76-4.46,4.66-4.06a78.38,78.38,0,0,1,30.92,9.94c10.32,5.9,21,11.6,27.3,23.07,4.43,8,10.71,15.12,14.81,23.46,5.23,10.66,7.78,22.07,9,33.86a103.64,103.64,0,0,1,0,22.82c-.3,2.59.54,5.3.61,8a72.33,72.33,0,0,1-4.41,27.76c-.61,1.62-1.15,3.26.3,4.39,1.67,1.31,2.45-.78,3.61-1.49,4.85-2.94,4.84-8.15,5.88-12.78,1.26-5.63,2.82-11.31,3.1-17,.34-6.89-.45-13.85-1-20.77a18.49,18.49,0,0,1-.44-3.11c.93-9.74-1.69-18.89-4.41-28.07a123.2,123.2,0,0,0-17.3-36.06c-9.77-13.93-21.17-25.88-37.48-32-10.65-4-21.45-7.65-33-7.84-3,0-3.89-.6-3-4.05.8-3.22-.22-6.89-.66-10.26-1.1-8.34-.35-16.67-.58-25-.15-5.26.11-10.53-.06-15.78-.31-9.82,1.65-19.57.81-29.41-.47-5.66,4.44-5,7.49-5.24,6.92-.56,13.86-1.41,20.86-1,1.69.1,2.13.37,2.7,2.27,4.24,14.1,8.87,28.06,15,41.53q6,13.21,11.15,26.88c5.06,13.38,12.18,25.89,19.68,38.15,5.33,8.71,9.71,18,15.12,26.67a234.19,234.19,0,0,0,20.85,27.76c.71.82,1.39,2.4,2.81,1.79,1.26-.54,1.52-2,2-3.32,1-2.75.09-5.49.19-8.22.42-12,1.75-24.12,1.19-36.11-.69-14.92-.07-29.84-.76-44.73C1107.56,523.76,1106.89,520.41,1108.57,516.72ZM991.74,571.88c-10.83,0-17.19,1.2-21.56,5.34-8.24,7.79-15.47,16.26-19.18,27.46-5.46,16.47-8.12,33-5.37,50.37,1.87,11.78,6,21.67,15.84,29.19,10.72,8.18,22.41,10.14,35.17,7.58,6.85-1.38,12-6.3,18-9.49,6.41-3.43,10.62-8.85,14.13-15.2,5-9.11,7.4-18.83,8.81-29a57.58,57.58,0,0,0-1.85-25.64c-3-9.57-7.18-18.25-14.35-25.75C1012.85,577.83,1004.18,570.45,991.74,571.88ZM819.18,605.76c1.46-5.41-1.11-11.73-3.09-18-3.34-10.63-9.37-18.66-21.05-21.42-12.13-2.86-21.94,1.77-30.84,9s-14,17.61-17.44,28.1-7.58,21.34-5.16,33c1.64,7.91.42,16.12,4.11,23.93,4.41,9.34,13.06,16.47,23.3,16.81,2.47.08,4.71,1.06,7.44.39,13.77-3.42,23-12.71,29.84-24.09C814.72,639.42,819.72,624,819.18,605.76Zm137.13,215.6c.8-14.06-5.61-24.11-14.24-29.23-6.72-4-14.33-4.53-21.55-4.79-18.76-.67-37.44-3.6-56.25-2.42-8.15.52-16.26-2-24.41-.06-4.17,1-9,1.67-10.54,6.11a36.13,36.13,0,0,0,.23,24.53c4.83,12.87,13.74,23.16,24.32,31.82,6.2,5.08,13.1,8.54,21.58,9.27,6.91.59,13.73,2.83,20.75,2.79,3.93,0,7.87-1.52,11.78-1.42a58.9,58.9,0,0,0,23.27-4.48c8.39-3.26,16.78-6,19.13-16.15a4.84,4.84,0,0,1,1.18-1.63C955.19,831.3,957.54,826.49,956.31,821.36Zm249.17-87.82c.34-3.25.84-5.87,1-8.51.25-3.74-.46-8,.9-11.12,2.73-6.34,2.74-13.34,5.8-19.52,4-8.09,1.83-17.41,4.85-25.77,1.41-3.9.38-9.07,5.57-10.88a14.1,14.1,0,0,0,5.6-3.61c3.21-3.26,7.61-4.08,11.84-5.15,2.14-.54,4.2,1,4.29,2.24.27,4.23,4.77,7.18,3.32,11.82-.2.63.42,1.49.59,2.26.53,2.39,2.4,1.93,3.19.85,1.91-2.64,3.3-6,1.64-9a8.33,8.33,0,0,1-1.07-4c-.2-3.7-2.16-6.68-4-9.69-1.53-2.55-3.63.1-5.43-.27-.5-.1-1-.42-1.46-.54-4.93-1.17-9.08,0-13.23,3.07-2.13,1.57-4.18,3.65-6.61,4.57-6.09,2.31-9.39,7-10.56,12.79s-1,12.17-1.75,18.24c-1.15,9.82-2.66,19.53-6.06,29a75.63,75.63,0,0,0-4.46,23.15c-.09,2.42.91,5.07,3.1,5.93,2.34.91,4.82.11,6.94-2a69,69,0,0,0,11.59-14.23c6.11-10.4,12.61-20.94,13-33.52.15-4.43,1.7-8.52,1.32-13.22-.47-6-3.25-11.48-2.79-17.5.14-1.88-1-2.34-2.57-2.15-1.77.22-1.86,1.19-1.63,2.87.8,5.78,1.91,11.63,1.76,17.42-.32,11.87-2.66,23.45-8.2,34.11-2.08,4-4.83,7.64-7.29,11.43-2,3-5.93,4.57-6.3,8.79C1208.34,732.66,1207,732.85,1205.48,733.54Z"/><path class="cls-3" d="M1238.07,613.17c.7-9,1.49-17.86,2-26.75.7-13.57.74-27.14.74-40.72,0-7.74-1.77-15.27-2.74-22.89-1-7.86-2.48-15.66-3.74-23.48-.09-.53.08-1.19-.18-1.59-.94-1.47-.85-4.32-3.28-3.95-2.6.39-2.93,2.33-2.07,4.91,3.29,9.81,3.56,20.21,5.3,30.31a125.13,125.13,0,0,1,1.66,17.4c.18,6.57,1.37,13.09,1,19.65-.73,11.27-1.73,22.51-2.91,33.76-1.14,10.91-3.61,21.38-6.26,31.91a6.57,6.57,0,0,1-3.73,4.45c-1.65.68-2.32-1.75-3.12-3-4.38-6.83-6.81-14.56-9.94-22-5.86-13.86-8.29-28.73-13-42.92-2.11-6.38-2.44-12.77-2.24-19.28.26-8.74-2.36-17.07-3.33-25.62-1.26-11.09-4.69-21.7-6.93-32.57-2.54-12.36-5.84-24.6-9.43-36.75a258.09,258.09,0,0,0-13.53-35.25c-2.15-4.65-5.85-5.9-8.18-3-.57.74-1.52,1.62-.06,2.21,6.07,2.47,7.49,8.44,8.82,13.51,1.8,6.85,4.94,13.08,7.07,19.74a486.78,486.78,0,0,1,13.59,51.06c1.29,6.32,2,13,2.8,19.41,1,7.63,1.38,15.38,2.84,22.93,1,5.16.73,10.34,1.16,15.47,1,11.53,2.66,23,3.33,34.51.55,9.41,0,18.88.17,28.32.22,10.84-1.5,21.5-2.45,32.23-.18,2-2.62,3.26-1.53,5.55-11.4-6.52-18.41-17-26.09-26.91a143.7,143.7,0,0,1-13.55-21.71,176.6,176.6,0,0,1-11.66-26.65c-3.1-9.46-6.89-18.69-10.42-28-4.5-11.9-8.89-23.87-11.87-36.23-.84-3.43-2.18-6.71-2.86-10.18-.17-.85-1.14-1.66-.23-2.5.74-.69,1.47.2,2.19.39.51.14,1,.61,1.47.64,1.4.11,3.24.95,4-.75.67-1.49-.55-2.82-1.75-3.73-4-3-6.82-7.05-9.14-11.16s-3.36-8.88-4.38-13.5a216,216,0,0,1-4.06-28.35c-.6-7-1.79-14-2.47-21a188,188,0,0,0-6-30.73c-2.58-9.61-3.43-19.75-8.18-28.83a35.32,35.32,0,0,1-3.32-11c-1.67,6.05-5.21,11.57-.57,18.43,3.76,5.56,4.33,12.77,5.81,19.37,1.9,8.49,3.26,17.11,5.11,25.58,3.91,17.87,4.12,36.17,7.31,54.09.4,2.22,0,4.56,0,7.1-3.69-.55-5.73-3.52-8-5.55-6.6-6-14.42-9.91-22.11-14.14-8.7-4.79-17.83-8.67-26.87-12.72-4.24-1.9-8.63-3.41-13.48-2.89-3.12.33-5.22-1-6-4.3-3.56-14.44-7.72-28.75-10.65-43.31-2.27-11.23-5.95-22.25-6.93-33.64-.68-7.95-1.94-15.78-2.8-23.58-3.83.26-5.14,2.38-4.76,5.93.33,3.07-1.6,5.59-2.23,8.42-2,9-2.57,18.13-3.79,27.21-1.76,13.08-3,26.22-3.6,39.4-.31,7.47-1.48,14.85-1.62,22.3-.06,3.1-.91,4.55-4,5.81-7.88,3.25-15.12,7.62-20.33,14.72-.91,1.24-1.47,2.53-.41,3.49.8.73,2.1.21,3.24-.58a35.38,35.38,0,0,0,5.68-5c3.47-3.65,8-5.71,12.22-8.14,2.47-1.41,3-.26,2.61,1.81-2.73,12.95-2.24,26.08-2.4,39.18q-.13,11.44-.82,22.88c-.34,5.67,1,11.22.84,16.86a23.88,23.88,0,0,1-.37,3.57c-.55,3.05-2.27,3.35-4.39,1.52a22.17,22.17,0,0,1-5.11-6.51c-2.68-5-6.31-9.5-9.81-14-5.15-6.63-8.21-14.37-11.61-21.86-6.23-13.7-10.08-28.29-14.93-42.51a22.51,22.51,0,0,1-1.59-8.54,6,6,0,0,0-.39-2.73c-6-13.87-8-28.79-11.07-43.42A245.07,245.07,0,0,1,919.45,375c-.63-7.24-2.71-14.81.25-22.15.32-.78.74-2.81-.77-2.39s-2.4-2.89-3.86-.1c-.65,1.24-1.72,2.33-2.12,3.74-.61,2.19-1.66,3.82-4,4.51a6.31,6.31,0,0,0-2.43,2q-16.59,18.09-33.36,36c-8.62,9.25-17.09,18.81-24.31,29.26C844.93,431.51,842.3,438,838,443.4c-3.09,4-6.08,8-9.21,11.91-2.11,2.65-4.37,3.88-8.25,2.77-11.52-3.29-23.15-2.21-35.46.91a54.57,54.57,0,0,0,6.52-13.38c2.38-7.53,6.71-14.36,8.24-22.21.61-3.13,2.93-5.33,4.27-8.07,6.75-13.85,14.52-27.15,22-40.63,3.55-6.43,7.53-12.56,13.31-17.29,1.87-1.53,2.65-3,.5-4.89s-3.15.42-4.16,1.48c-11.34,11.77-18.09,26.5-26.17,40.4-4.08,7-7.23,14.43-10.55,21.74-3,6.61-6.09,13.2-9,19.88a38,38,0,0,1-5.12,8.59c-4.5,5.72-7.76,12.28-11.16,18.71-1,1.8-2,3.43-3.89,4.39A91.16,91.16,0,0,0,744,487.58c-4,4.27-8.62,7.91-12.11,12.65,6.81,1.21,10.22-3.27,13.85-7.89,4.84-6.16,9.91-12.24,19.39-14.74-28.11,47-49.29,96-68.31,146-.2-61.82,16.35-119.52,42.32-175.21a6.61,6.61,0,0,0-7,4.6c-2.65,7.06-6.17,13.72-8.78,20.82-3.4,9.27-7.42,18.34-10.44,27.73-3.47,10.78-6.27,21.78-9.35,32.69-1.45,5.16-3.73,10-5.56,15a152.4,152.4,0,0,0-8.35,35c-.36,3-1.9,5.84-1.74,9-1.46-6.66-1-13.29-.81-20,.33-10.46,1.43-20.92,1-31.4-.37-8.8,1.55-17.24,3.89-25.56,2.69-9.52,4.92-19.16,8.25-28.5a65.32,65.32,0,0,1,4.12-9.8c2.11-3.83,1.5-8.47,3.86-12.32,1.85-3,2.87-6.51,4.52-9.66,11.41-21.66,23.71-42.78,39-62a134.09,134.09,0,0,1,12.92-14.28c7.49-7.07,14.33-14.86,22-21.7a212.12,212.12,0,0,1,20-15.91c10-6.94,21-12.07,31.6-17.85,12.48-6.78,25.86-11,39.27-15,7.72-2.27,16.14-2.89,23.83-5.39,12-3.91,24.53-4.06,36.73-6.35,7.72-1.44,15.47-.94,23.15-1.71a185.65,185.65,0,0,1,24.15-.5c14.6.45,29.22,1.42,43.33,5.6,13.26,3.92,26.74,7,39.91,11.38,12.31,4.12,23.61,9.88,35.17,15.46,9.74,4.7,19.9,8.57,29.58,13.46,10.42,5.26,20.79,10.55,30.38,17.32,5.47,3.86,11.5,6.94,17.33,10.28a9,9,0,0,1,1.39,1.17c5.91,5.05,11.23,10.69,16.78,16.09,6.47,6.29,13.29,12.28,19.85,18.52a91.05,91.05,0,0,1,14.71,17.24c5.62,9,11.55,17.83,15.91,27.53a339.19,339.19,0,0,1,13.16,34.27c3.21,9.87,6.47,19.66,8.42,29.85,1.57,8.24,1.88,16.64,2.85,25,1,8.5.13,17,.29,25.45a132.3,132.3,0,0,1-6.06,41.62c-1.32,4.28-1.74,8.84-2.52,13.29-.14.77.09,1.59-.73,2.15s-1.19-.2-1.64-.57c-6.21-5.18-13.8-6.29-21.44-7.19A33.54,33.54,0,0,0,1238.07,613.17ZM730.2,501.57c.32.33.64.35.9-.05.06-.08,0-.26,0-.39l-.76.51a.78.78,0,0,0-.83.79c-.66.09-1,.63-.61,1,.55.57.69-.3,1-.56S730.92,502.23,730.2,501.57Z"/><path class="cls-3" d="M1201.06,962.31c-.76,3.81.63,8.15.94,12.54.41,5.6-1.61,10.75-1.94,16.19-.13,2.17-2.25,3.76-5,3.66-3.57-.13-6.74-1.55-9.85-3-11.33-5.22-21.72-12-30.31-21a86.51,86.51,0,0,1-12-15.38c-3.29-5.6-7.54-10.51-11.53-15.61-5.78-7.4-9.84-16-14.78-24-6.16-10-12.46-19.77-17.74-30.25-2.74-5.46-2.93-11.22-4-16.92-.07-.39,0-.81-.11-1.19-1.36-5.07-.79-6.76,4.19-8.31,6.47-2,11.3-6.18,16.25-10.51,7.92-6.94,16.16-13.58,23.85-20.71,4.3-4,9.89-7.08,12.57-12.71,1-2.22,3.5-2,5-3.65,5.07-5.53,10.12-11.22,16-15.83,5-3.91,9-9.73,16.2-10.29,4.27-.33,8.48-1.55,12.65-1.79,8.33-.49,15.47-3.89,22.63-7.48,2.94-1.47,6.36-2,8.86-4.34,1.28-1.19,2.44-.13,3.24.42,13.93,9.41,27.6,19.14,39.18,31.49,11.11,11.84,19.38,25.64,28.06,39.24,8,12.51,11.76,26.67,17.67,40a158.18,158.18,0,0,1,6.68,17.73c1.89,6.16,3.74,12.41,4.44,18.89.29,2.7-.86,4.06-3.56,3.93-9.55-.49-19.17-.29-28.55-2.59-8.39-2.05-16.72-4.36-25.17-6.08-6.55-1.33-10.75-.63-10.58,8.41.2,10.75,2.27,21.37,3.49,32,.47,4.11.92,8.24,1,12.37.05,2.58-1.13,4-4.29,4.59-7.67,1.31-14.47-1.77-21.66-3-10.37-1.76-17.89-8.84-26.89-13.09a24.92,24.92,0,0,0-11.16-2.8c-3,0-4.2.92-3.84,3.93A46.57,46.57,0,0,1,1201.06,962.31Z"/><path class="cls-3" d="M1243.35,423.58c16.46-6.95,33.39-11.09,50.59-14.05,6.12-1,12.41-1.43,18.64-2a248.25,248.25,0,0,1,27-.59,277.89,277.89,0,0,1,38.47,3.74c13.42,2.18,26.6,5.32,39.77,8.49,13.36,3.21,26.53,7.11,38.85,13.44,5.74,2.94,12.36,3.44,18.2,6.35,3.59,1.79,4.15,2.48,1.22,5.37-3.6,3.55-8.18,5.83-12,9-8.4,6.86-16.62,13.94-24.88,21-3.8,3.23-4,5.19-.7,8.93a27.43,27.43,0,0,0,5.3,4.88c7,4.67,13.81,10,18.33,16.87,5.75,8.79,13.35,16.21,18.18,25.64,1.71,3.34.2,4.5-2.27,5.79a53.67,53.67,0,0,1-10.65,3.87c-10.34,2.91-19.19,9.11-29.08,13-.73.29-1.42.71-2.16,1-6.3,2.17-6.57,2.4-2.62,7.48,9,11.62,14.39,25.07,19.74,38.55,1,2.58-.84,5-3.66,5-10.54-.07-20.64-2.77-30.93-4.59-10.76-1.91-21-5.26-31.26-8.65a123.56,123.56,0,0,1-19.28-8.08c-10.86-5.79-22.83-8.75-33.64-14.47-12.74-6.73-24.39-15.12-36-23.6-5.56-4.07-10.78-8.59-16.23-12.81a6.56,6.56,0,0,1-2.51-4.82c-1.3-18.3-6.69-35.74-11.77-53.14-4.16-14.29-9.67-28.24-18.32-40.65C1247.3,431.07,1246.2,427,1243.35,423.58Z"/><path class="cls-3" d="M801.24,341.6l-17.12,11a23.16,23.16,0,0,0-4.46,3.89c-3.85,4.16-8.13,7.91-12.14,11.92a41,41,0,0,0-3.74,4.66c-7.84,10.63-16.95,20.2-25.3,30.39-3.42,4.19-6.11,9-8.86,13.7-6.79,11.62-13.35,23.38-20.17,35-2.06,3.51-2.88,7.6-6,10.7-2.34,2.34-4.91,3.25-7.58,2.36-7.78-2.6-16.2-2.92-23.57-7-4-2.17-7.34-5.06-10.88-7.77-2-1.5-1.91-3.06-.52-5.14A71.93,71.93,0,0,1,679.7,426c4.12-2.84,4.27-3.82,1.54-8.12S674.41,410.6,671,407c-2.1-2.24-2.21-3.94.32-5.51,11.49-7.12,22.82-14.41,36.07-18.23a130,130,0,0,0,14.15-5.09c2.57-1.08,3.32-2.68,2.6-5.71-1.9-8-7.14-14.09-11-21-1.56-2.75-3.17-5.48-4.93-8.11-1.53-2.27-1.19-3.43,1.42-4.6,7.86-3.53,16.16-5.2,24.59-6.54,6-1,12.16-1.51,18.19-2,7.5-.58,15.16.84,22.75,1.47a67.69,67.69,0,0,1,15.53,3.63c2.56.85,5.25,1.12,6.4,4.12C797.72,341.14,799.88,339.91,801.24,341.6Z"/><path class="cls-3" d="M721.42,879.46c-.21-8.06.76-15.05,1.39-22.08.33-3.61-.75-7.4-.67-11.15,0-2.1-1.78-1.54-2.63-1.16-5.66,2.56-11.65,4.17-17.24,7.08-6.74,3.51-14.14,5.74-21.3,8.42-2,.73-4.64-1.78-3.86-3.67,2.12-5.14,1.9-10.67,2.76-16a31.94,31.94,0,0,1,2.74-9.5c5-9.94,8.69-20.44,13.17-30.61,1.52-3.45,2.92-8,5.87-9.35,4.08-1.89,5,3.76,6.86,6.06,7.88,9.53,16.68,18,25.72,26.43,8.1,7.52,17,14.2,23.4,23.65,4.43,6.57,11.83,10.3,18.75,14.15,10.19,5.65,19.83,12.3,30.51,17,7.75,3.44,15.59,6.72,23.56,9.59,2.55.93,2,1.61,1.14,3.25-3.2,6.19-7.79,11.49-12.21,16.66a113.25,113.25,0,0,0-11,14.68c-1.29,2.11-2.58,3.1-5,2.95-2.3-.13-4.25.54-4.78,3.26-.33,1.67-1.7,2.71-2.77,3.9-1.43,1.61-2.82,1.26-3.93-.4a7.63,7.63,0,0,1-1.58-3.1c-.82-8.54-6.15-15.54-7.76-24A76.56,76.56,0,0,0,774,881.66c-1.25-2.19-1.67-3.25-4.53-1.26a91.19,91.19,0,0,1-16.12,8.94c-6.94,3-12.73,7.88-19.63,10.81a20.08,20.08,0,0,1-3.26,1.39c-1.71.37-3.23,2.82-5,1.17a9.41,9.41,0,0,1-3.21-6.57C722.17,890.24,720.57,884.42,721.42,879.46Z"/><path class="cls-1" d="M1037.61,889.09c.31,8.64-3.45,16.46-.22,24.52,1,2.38-.83,4.31-2.67,5.35-10.79,6.12-20.68,13.93-32.06,18.85a217.19,217.19,0,0,1-48.86,14.88c-12.77,2.22-25.65,3.51-38.46,5.32-7.38,1-14.9,1.17-22.36,1.57-6.84.35-13.69.45-20.53.77-8.75.41-16.4-2.53-23.47-7.37-4.37-3-5.15-6-2.67-10.77,1.47-2.82,3.17-5.52,4.7-8.31,1-1.87,2.21-2.23,3.76-.64a4.06,4.06,0,0,0,5.65.3c3.9-2.85,8.5-3.28,12.86-3.52,10.22-.56,20.07-2.9,29.92-5.25,6.66-1.59,13.6-1.93,20.08-3.86,17.41-5.19,35.27-8.62,52.56-14.32,11.91-3.93,24.43-6,36.68-8.89A143.35,143.35,0,0,0,1037.61,889.09Z"/><path class="cls-3" d="M1099.83,498.62c2.44,14,1.69,28.24,3,42.33a67.63,67.63,0,0,1-.44,18.45c-.7,3.92-.3,8.07-.13,12.11.41,10.21-1.33,20.29-1.59,30.46a12.59,12.59,0,0,1-.69,2.68c-.15.61,0,1.42-.92,1.52s-1-.7-1.3-1.26c-4.39-9.06-11.09-16.55-16.79-24.72-1.41-2-1.88-4.66-3.06-6.85-4.82-8.89-10-17.6-14.57-26.6-5.28-10.33-10.62-20.61-14.89-31.48-3.77-9.58-8.8-18.72-12.2-28.46-3.61-10.3-6.34-20.91-9.39-31.4-.2-.68-.38-1.7.45-2.18a1.65,1.65,0,0,1,1.51.15c5.38,4.57,12.62,4.13,18.63,7,3,1.43,6.1,2.67,9.11,4.11,14.93,7.13,28.55,16.32,41.7,26.28C1101.26,493,1099.38,496,1099.83,498.62Z"/><path class="cls-1" d="M1140.38,961.41c-3.37-.18-5.34-2.93-7.91-4.49q-17.84-10.83-35.3-22.26c-3.56-2.34-7.11-4.74-5.77-10.64.93-4.14-6.33-7.94-10.39-6-3.34,1.57-7,.74-8.07-2.5-2.33-7.3-8.17-9.38-14.66-10.65-4.78-.94-8.57-4-13-5.7-2-.79-.59-2.36-.51-3.45.75-10.34,8-14.66,16.65-17.52,7.67-2.53,15.37-4.9,22-9.75,2-1.48,3.73-1.14,4.51,1.48a72.86,72.86,0,0,0,2.33,7.92,292.77,292.77,0,0,0,21.26,41.1c3.13,5,5.9,10.12,9,15.09,5.51,8.84,12.75,16.41,18.56,25,.53.78,1.31,1.38,1.18,2.45Z"/><path class="cls-3" d="M779.89,535.78c1.12-16.8.49-32.39,2.26-47.86.8-7,3-13.79,2.31-20.94-.16-1.53,1.22-2,2.39-2.26,5.57-1.45,10.84-3.62,17-3.14,5.33.43,10.77-1.16,16.11,1,2.8,1.13,4.37,1.7,2,5.15-7.19,10.49-12.46,22-18,33.44-5.37,11-10.61,22-16.4,32.79-1.86,3.45-4,6.84-3.8,11,0,.93-.5,2.32-1.45,2.3s-1.57-1.21-1.65-2.42C780.38,541.41,780.06,538,779.89,535.78Z"/><path class="cls-1" d="M1000.77,375.23c3.39,20.78,8.45,41,12.69,61.35a43.32,43.32,0,0,0,2.38,8c1.08,2.54.65,3.63-2.17,3.87-4.08.36-8.14.93-12.22,1.33-1.6.16-3.28-.14-4.83.19-6,1.26-6.38.86-5.71-5.27,1.09-9.93,1.8-19.91,2.94-29.83,1.09-9.43,2.63-18.81,3.74-28.24.29-2.49.37-5,.87-7.48A5.36,5.36,0,0,1,1000.77,375.23Z"/><path class="cls-1" d="M810.5,928.84c7.29-8.3,14.45-16.13,20.13-25.13a103.09,103.09,0,0,0,5.72-10.48c1-2.14,2.06-2.52,4.33-1.65,5.29,2,10.65,3.95,16.31,4.62,2.72.33,3.7,1.65,3.65,4.24-.08,3.77-.1,7.54,0,11.31.06,2.38-.82,3.6-3.21,4.25-9.74,2.68-19.42,5.55-28.62,9.84a79.22,79.22,0,0,1-8.61,3.79C817.11,930.64,814,929.57,810.5,928.84Z"/><path class="cls-3" d="M894.82,918.51c-3,0-4.66,2.44-6.53,4.08-2.48,2.18-4.91,2.93-9.16,1.91L901,909.25c-.79-1.74-2.38-1.1-3.73-1.17l.09.09c-.69-3.11,1.73-3.89,3.06-2.34,2,2.4,3.47,1.32,5.51.75,1.48-.42,3.17-.09,4.68-.09.49,1-1.5,1.37-.46,2.42l.11-.08c-2.47.13-4.58.89-5.75,3.29l.06,0c-3.15.93-6.8,1-8.17,4.91l.07-.07c-.83-.24-1.06.12-.89.88l.08-.08c-.77-.17-1.14.06-.89.9Z"/><path class="cls-3" d="M876.94,913c3.59-.94,6.28-3.29,8.94-5.69,2.07-1.86,5.37-4.5,7-2.49s-2.31,3.76-4.32,5.15c-5.89,4.06-11.75,8.14-17.71,12.08-1.45,1-1.89,2.52-3,3.66-1.44,1.52-3.68,1.61-4.69.57-1.31-1.35.59-2.7,1.74-3.38a61.86,61.86,0,0,0,9.67-7c.95-.85,2.39-1.32,2.39-3Z"/><path class="cls-3" d="M910.11,908.91c3-1.29,5.61-3.73,9.54-2.09-4.54,3.37-9.67,5.95-13.57,10.1l0-.06a4.39,4.39,0,0,0-3.72,2c-3.4,4.22-8.21,4.61-13.27,5.54,1.53-2.65,4.91-3,5.68-5.87l-.09.1c.67.07,1.13-.07.89-.9l-.08.08c.77.18,1.13,0,.89-.88l-.07.07c3.35-.6,5.71-2.84,8.17-4.91l-.06,0c2.35-.34,4.42-1.16,5.75-3.29Z"/><path class="cls-3" d="M877,912.9c-1.06-1.38-1.91-.06-2.61.36-1.93,1.16-3.62,2.76-5.62,3.76-1,.52-2.18,2.45-3.3,1.3-1.36-1.39-.05-3.26,1-4.19a116.76,116.76,0,0,1,10.91-8.28c1.55-1,3.72-1,5.3-2.33a1.88,1.88,0,0,1,2.84.4c.78,1.17-.51,1.63-1.14,2.13-2.31,1.79-4.71,3.49-7.06,5.22-.6.44-1.58.8-.41,1.68Z"/><path class="cls-3" d="M897.23,908.08c-1.57,3.89-5.56,5.19-8.47,7.6-4.17,3.45-8.81,6.35-13.2,9.55-1,.77-2.13,2.43-3.27.93-1-1.29.65-2.45,1.67-3.22,4.47-3.39,9-6.68,13.5-10,2-1.5,3.93-3.13,6-4.6,1.2-.86,2.55-1.35,3.9-.14Z"/><path class="cls-3" d="M906.08,916.92c1.74,1.46,2.61-.56,3.57-1.14,3.34-2,6.5-4.4,9.67-6.72a8.17,8.17,0,0,1,7.23-1.63c-.47.58-.77,1.24-1.27,1.52A103.92,103.92,0,0,0,912,918.32a8.53,8.53,0,0,1-2.11,1.12c-3.83,1.5-4.21,1.23-3.72-2.57Z"/><path class="cls-3" d="M866.2,911.36c.1-3.16,1.94-5.89.33-8.79a1.16,1.16,0,0,1,.59-1.67c.82-.29,1.24.42,1.54,1,1,1.85,1.85,4,3.54.34.6-1.27,1.68-.52,2.59.21s1.29,1.32.19,2.4C872.44,907.3,869.91,909.76,866.2,911.36Z"/><path class="cls-1" d="M1140.28,961.48l.61.62c-.12,0-.27.15-.36.11-.43-.18-.46-.47-.15-.8Z"/><path class="cls-2" d="M826.12,944.75c-.28-4.21-.28-4.21,1.76-7.17A6.25,6.25,0,0,1,826.12,944.75Z"/><path class="cls-2" d="M991.74,571.88c12.44-1.43,21.11,6,29.63,14.85,7.17,7.5,11.35,16.18,14.35,25.75a57.58,57.58,0,0,1,1.85,25.64c-1.41,10.18-3.77,19.9-8.81,29-3.51,6.35-7.72,11.77-14.13,15.2-6,3.19-11.14,8.11-18,9.49-12.76,2.56-24.45.6-35.17-7.58-9.84-7.52-14-17.41-15.84-29.19-2.75-17.38-.09-33.9,5.37-50.37,3.71-11.2,10.94-19.67,19.18-27.46C974.55,573.08,980.91,571.89,991.74,571.88ZM1007.52,658c5.35-1.18,10.81.16,16.23-.66-.18-1.32-1-1.71-2.13-2-3-.9-6.08-.52-9.11-.82s-4.54.7-4.93,3.61l-.93-.21v.67Zm-7.3,6.44c6.72-1.61,13.7-1.55,20.46-2.93-7.36-1.91-14.72-3.89-21.07,2.3-.34.38-1.52.34-.84,1.17C999.21,665.56,999.93,665.2,1000.22,664.47Zm13.19-66.81a9.77,9.77,0,0,0,0-1.21c-.7-5.35-2.19-10.84-7-13.41-6.58-3.49-16.62.94-19.32,8a28.78,28.78,0,0,0-2.17,10.68c.12,4.77,2.45,10.46,7.79,12.1C1001.63,616.55,1013.44,607.47,1013.41,597.66ZM978,675.38c3-1.18,5.38,0,7.81.83,6,2.1,12.11-.62,18.17.06.36,0,.83-.59,1.19-1a55.86,55.86,0,0,1,9.44-8.22c-1-1.45-2.33-1.08-3.51-1.12a96.49,96.49,0,0,0-13.58.89c-5.66.61-11.36,3.59-17,1s-11.57-5-18.12-3.45c-1.22.3-3.33-1.11-3.5,1.24-.15,2,2,2.25,3.38,2.73.85.29,1.89,0,2.81.12,2.4.4,5.72,5.31,4.62,7.41-1.26,2.4,0,3.08,1.69,3.37,5.1.89,10.22,1.71,15.37,2.23,2.14.22,5.61,0,5.73-2,.09-1.64-3.47-1.45-5.56-1.47a19.07,19.07,0,0,0-2.83,0C981.65,678.32,979.86,677.29,978,675.38ZM954.75,636c0,2.26-.09,4.14,0,6s1.41,2.87,2.93,1.8,5.35.82,4-3.19-3.43-7.67-3.82-12a2,2,0,0,0-1.28-1.37c-1.21-.21-.81,1-1.15,1.63C954.12,631.28,955.05,633.86,954.75,636Zm4.13,21.54c-.84.68-2.89-.86-3.17,1a3.87,3.87,0,0,0,2.38,3.86c2.91,1.07,5.76-.11,8.26-1.5.95-.52,1-2.27-.85-2.56C963.39,658,961.27,657.79,958.88,657.5Zm50.88-4.9c4.37-.72,8.6-.2,12.79-.42.87,0,2.21,2.1,2.67-.43.38-2.08-1.38-2.54-2.63-2.67-2.65-.28-5.36.06-8-.14S1010.21,649.57,1009.76,652.6Zm-49.13,3.56c1.13.6,2.3-1,3.83-.83.88.11,1.6-.19,1.59-1.28a1.7,1.7,0,0,0-1.39-1.73,39.69,39.69,0,0,0-5.82-.87c-1.47-.08-3.68-.75-4,1.48-.23,1.89,1.85,2.38,3.29,3A9.46,9.46,0,0,0,960.63,656.16Zm51.47-10.23c3.91-.74,6.53,1.1,9.49.63,1.52-.24,4,.3,4.11-1.41s-2.91-1.75-3.71-1.61C1019,644.07,1015.34,641,1012.1,645.93ZM963.93,649c-1.7-3.84-4.35-3.44-6.83-3.06-.74.11-2.11.37-2,1.49s1.22,1.59,2.41,1.58C959.46,649,961.44,649,963.93,649Zm3.45-33.86a11,11,0,0,0-5.91-1.89,1.63,1.63,0,0,0-1.78,1.75c0,1.14,1,1.13,1.77,1.06C963.41,615.86,965.43,616.44,967.38,615.12Zm-8,6.06c1.72.25,3.22.91,4.43-.55.44-.53-.23-1-.64-1.16C961.52,618.69,960.28,619.12,959.43,621.18Z"/><path class="cls-2" d="M819.18,605.76c.54,18.24-4.46,33.66-12.89,47.7-6.83,11.38-16.07,20.67-29.84,24.09-2.73.67-5-.31-7.44-.39-10.24-.34-18.89-7.47-23.3-16.81-3.69-7.81-2.47-16-4.11-23.93-2.42-11.65,1.66-22.48,5.16-33s8.5-20.8,17.44-28.1,18.71-11.9,30.84-9c11.68,2.76,17.71,10.79,21.05,21.42C818.07,594,820.64,600.35,819.18,605.76Zm-15.17-20c0-5.77-4.17-12.41-7.91-13.3a12.07,12.07,0,0,0-12.66,4.84,30.08,30.08,0,0,0-5.35,13.07A11.45,11.45,0,0,0,783,602c3.89,2.82,7.67,2,11.4-.11C801.22,598,803.66,591.71,804,585.77Zm-51.22,48.92c-2.95.08-3.15,1.76-3.08,3.78a72.78,72.78,0,0,1,0,8.09,2.6,2.6,0,0,0,2.65,3.15c3.68.2,7.38.06,11.11.06-.53-5-4.65-3.5-7.44-4.77,3.81-.44,3.88-2.55,3.62-5.45a68.51,68.51,0,0,1-.14-14.32c.36-3.13-1.35-4.41-4.38-3.68-2.57.62-5,1.85-5.21,4.67S748.3,632.76,752.79,634.69Zm36.05,24c-9.6-2-19.05-2.17-28.48-1.72-1.68.08-5.22-.5-5,2.51.22,2.79,3.3,2.3,5.54,2.47,6.2.46,12.46-1.75,18.57.24C783.59,663.57,786.32,662.13,788.84,658.74Zm-1.64-9.93c1.11-.35,1.47-.41,1.77-.56,2.9-1.48,8.93,1.51,8-5.6-.08-.59,1.14-1.42,1.85-2,2.72-2.38,3.86-5.63,5-8.9a1.77,1.77,0,0,0-.09-1.86c-.52-.63-7.08-.83-7.54-.26-2.06,2.5.59,3.4,1.47,4.15ZM774.76,655c-7.74-4.06-15.46-3.61-23.1-3.57-1.46,0-1.34,1.18-.92,2a3.58,3.58,0,0,0,3.65,1.94c2.56-.11,5.27-.55,7.64.13A19.9,19.9,0,0,0,774.76,655Zm3.23-1.57.15.95c2.94.84,6,1.36,8.78,2.61,3.19,1.44,5.27,0,7.38-1.84,1.31-1.15,1-2.76.57-4.13s-1.91-1.49-3.06-1.21C787.18,651,782.59,652.22,778,653.44Zm-12.52-59.55a25.62,25.62,0,0,0-10.5,17C757.55,604.63,765.66,601.84,765.47,593.89Zm14.91,72c-5.38-3.38-10.3-2.74-15.28-1.62-.8.18-1.56.14-1.61,1.27s.92,1.38,1.54,1.47C770,667.76,774.89,668.43,780.38,665.93Zm-30.47-46.78c8.61,1.91,12.7-.79,11-7.16-2.2.5-2.52,3.82-5.47,3.41C752.69,615,751.84,617.93,749.91,619.15Zm16.86-30c.46,1.05-1,3.7,1.38,3.9,2.17.18,2.54-2.22,2.72-4.15.07-.76.66-1.48.69-2.23.05-1.32-.33-2.86-1.65-3.18-1.65-.39-2.64,1-3.09,2.43A12.37,12.37,0,0,0,766.77,589.16Zm42,30c-3.1-1.58-5.77-.78-8.44,0a1.86,1.86,0,0,0-1.18,1.9c0,.66.87,1.4,1.39,1.12C803.09,620.79,806.89,622.91,808.76,619.15ZM807,624.72c-2.43,0-4.77-.06-7.09,0a1.78,1.78,0,0,0-1.77,1.82c-.12,1.43.9,1.32,1.84,1.36C802.78,628.07,805.6,628.3,807,624.72Z"/><path class="cls-2" d="M956.31,821.36c1.23,5.13-1.12,9.94-4.75,14.34a4.84,4.84,0,0,0-1.18,1.63c-2.35,10.2-10.74,12.89-19.13,16.15A58.9,58.9,0,0,1,908,858c-3.91-.1-7.85,1.39-11.78,1.42-7,0-13.84-2.2-20.75-2.79-8.48-.73-15.38-4.19-21.58-9.27-10.58-8.66-19.49-19-24.32-31.82a36.13,36.13,0,0,1-.23-24.53c1.54-4.44,6.37-5.09,10.54-6.11,8.15-2,16.26.58,24.41.06,18.81-1.18,37.49,1.75,56.25,2.42,7.22.26,14.83.8,21.55,4.79C950.7,797.25,957.11,807.3,956.31,821.36ZM858.7,789.27c-6,0-10.66-.43-15.18.09-9,1-10.23,1.22-11.19,11.25-.85,9,2.79,16.37,7.21,23.72,3.82,6.37,9.8,10.63,14.59,16a38.9,38.9,0,0,0,17.4,11.12c14.42,4.68,29.25,3.12,44,1.55,7.55-.8,13.91-4.56,20.35-8.31,11-6.42,17.63-19.11,14.82-31.47-1.45-6.38-4-12.54-10.5-16.22-5.71-3.23-11.95-4-18.07-4.6-11.52-1.17-23.13-1.52-34.7-2.21C877.41,789.65,867.34,788.62,858.7,789.27Z"/><path class="cls-2" d="M1205.48,733.54c1.53-.69,2.86-.88,3-2,.37-4.22,4.34-5.77,6.3-8.79,2.46-3.79,5.21-7.44,7.29-11.43,5.54-10.66,7.88-22.24,8.2-34.11.15-5.79-1-11.64-1.76-17.42-.23-1.68-.14-2.65,1.63-2.87,1.55-.19,2.71.27,2.57,2.15-.46,6,2.32,11.52,2.79,17.5.38,4.7-1.17,8.79-1.32,13.22-.42,12.58-6.92,23.12-13,33.52a69,69,0,0,1-11.59,14.23c-2.12,2.06-4.6,2.86-6.94,2-2.19-.86-3.19-3.51-3.1-5.93a75.63,75.63,0,0,1,4.46-23.15c3.4-9.42,4.91-19.13,6.06-29,.71-6.07.56-12.29,1.75-18.24s4.47-10.48,10.56-12.79c2.43-.92,4.48-3,6.61-4.57,4.15-3,8.3-4.24,13.23-3.07.5.12,1,.44,1.46.54,1.8.37,3.9-2.28,5.43.27,1.8,3,3.76,6,4,9.69a8.33,8.33,0,0,0,1.07,4c1.66,3,.27,6.32-1.64,9-.79,1.08-2.66,1.54-3.19-.85-.17-.77-.79-1.63-.59-2.26,1.45-4.64-3.05-7.59-3.32-11.82-.09-1.27-2.15-2.78-4.29-2.24-4.23,1.07-8.63,1.89-11.84,5.15a14.1,14.1,0,0,1-5.6,3.61c-5.19,1.81-4.16,7-5.57,10.88-3,8.36-.85,17.68-4.85,25.77-3.06,6.18-3.07,13.18-5.8,19.52-1.36,3.16-.65,7.38-.9,11.12C1206.32,727.67,1205.82,730.29,1205.48,733.54Z"/><path class="cls-2" d="M729.87,502.9c-.32.26-.46,1.13-1,.56-.39-.4-.05-.94.61-1A3.55,3.55,0,0,0,729.87,502.9Z"/><path class="cls-2" d="M730.3,501.64l.76-.51c0,.13.1.31,0,.39-.26.4-.58.38-.9.05Z"/><path class="cls-2" d="M730.2,501.57c.72.66,0,.95-.34,1.33a4.42,4.42,0,0,1-.39-.47.78.78,0,0,1,.83-.79Z"/><path class="cls-2" d="M904.53,912.07c-2.46,2.07-4.82,4.31-8.17,4.91C897.73,913.1,901.38,913,904.53,912.07Z"/><path class="cls-2" d="M910.22,908.83c-1.33,2.13-3.4,2.95-5.75,3.29C905.64,909.72,907.75,909,910.22,908.83Z"/><path class="cls-2" d="M895.62,917.71c.24.83-.22,1-.89.9C894.48,917.77,894.85,917.54,895.62,917.71Z"/><path class="cls-2" d="M896.43,916.91c.24.83-.12,1.06-.89.88C895.37,917,895.6,916.67,896.43,916.91Z"/><path class="cls-1" d="M1013.42,597.66c0,9.81-11.79,18.89-20.75,16.14-5.34-1.64-7.67-7.33-7.79-12.1A28.78,28.78,0,0,1,987.05,591c2.7-7,12.74-11.47,19.32-8,4.85,2.57,6.34,8.06,7,13.41C1013.46,596.85,1013.41,597.26,1013.42,597.66Z"/><path class="cls-3" d="M978,675.38c1.82,1.91,3.61,2.94,6.06,2.6a19.07,19.07,0,0,1,2.83,0c2.09,0,5.65-.17,5.56,1.47-.12,2-3.59,2.26-5.73,2-5.15-.52-10.27-1.34-15.37-2.23-1.67-.29-2.95-1-1.69-3.37,1.1-2.1-2.22-7-4.62-7.41-.92-.15-2,.17-2.81-.12-1.43-.48-3.53-.72-3.38-2.73.17-2.35,2.28-.94,3.5-1.24,6.55-1.59,12.3.76,18.12,3.45s11.39-.35,17-1a96.49,96.49,0,0,1,13.58-.89c1.18,0,2.47-.33,3.51,1.12a55.86,55.86,0,0,0-9.44,8.22c-.36.37-.83,1-1.19,1-6.06-.68-12.13,2-18.17-.06C983.42,675.37,981,674.2,978,675.38Z"/><path class="cls-3" d="M954.75,636c.3-2.1-.63-4.68.7-7.08.34-.62-.06-1.84,1.15-1.63a2,2,0,0,1,1.28,1.37c.39,4.29,2.48,8,3.82,12s-2.62,2.22-4,3.19-2.82.1-2.93-1.8S954.75,638.22,954.75,636Z"/><path class="cls-3" d="M999.61,663.84c6.35-6.19,13.71-4.21,21.07-2.3-6.76,1.38-13.74,1.32-20.46,2.93Z"/><path class="cls-3" d="M958.88,657.5c2.39.29,4.51.5,6.62.83,1.88.29,1.8,2,.85,2.56-2.5,1.39-5.35,2.57-8.26,1.5a3.87,3.87,0,0,1-2.38-3.86C956,656.64,958,658.18,958.88,657.5Z"/><path class="cls-3" d="M1007.59,658.13c.38-2.92,2-3.91,4.92-3.62s6.11-.08,9.11.82c1.13.33,2,.72,2.13,2-5.42.82-10.88-.52-16.23.66Z"/><path class="cls-3" d="M1009.76,652.6c.45-3,2.12-3.87,4.81-3.66s5.37-.14,8,.14c1.25.13,3,.59,2.63,2.67-.46,2.53-1.8.38-2.67.43C1018.36,652.4,1014.13,651.88,1009.76,652.6Z"/><path class="cls-3" d="M960.63,656.16a9.46,9.46,0,0,1-2.45-.22c-1.44-.63-3.52-1.12-3.29-3,.27-2.23,2.48-1.56,4-1.48a39.69,39.69,0,0,1,5.82.87,1.7,1.7,0,0,1,1.39,1.73c0,1.09-.71,1.39-1.59,1.28C962.93,655.13,961.76,656.76,960.63,656.16Z"/><path class="cls-3" d="M1012.1,645.93c3.24-4.92,6.9-1.86,9.89-2.39.8-.14,3.87-.2,3.71,1.61s-2.59,1.17-4.11,1.41C1018.63,647,1016,645.19,1012.1,645.93Z"/><path class="cls-3" d="M963.93,649c-2.49,0-4.47,0-6.45,0-1.19,0-2.32-.32-2.41-1.58s1.29-1.38,2-1.49C959.58,645.54,962.23,645.14,963.93,649Z"/><path class="cls-3" d="M967.38,615.12c-2,1.32-4,.74-5.92.92-.79.07-1.76.08-1.77-1.06a1.63,1.63,0,0,1,1.78-1.75A11,11,0,0,1,967.38,615.12Z"/><path class="cls-3" d="M959.43,621.18c.85-2.06,2.09-2.49,3.79-1.71.41.18,1.08.63.64,1.16C962.65,622.09,961.15,621.43,959.43,621.18Z"/><path class="cls-3" d="M1000.22,664.47c-.29.73-1,1.09-1.45.54-.68-.83.5-.79.84-1.17Z"/><path class="cls-3" d="M1007.52,658l-.87.55v-.67l.94.22Z"/><path class="cls-1" d="M804,585.77c-.35,5.94-2.79,12.26-9.58,16.14-3.73,2.13-7.51,2.93-11.4.11a11.45,11.45,0,0,1-4.94-11.64,30.08,30.08,0,0,1,5.35-13.07,12.07,12.07,0,0,1,12.66-4.84C799.84,573.36,804,580,804,585.77Z"/><path class="cls-3" d="M752.79,634.69c-4.49-1.93-3.14-5.52-2.9-8.47s2.64-4.05,5.21-4.67c3-.73,4.74.55,4.38,3.68a68.51,68.51,0,0,0,.14,14.32c.26,2.9.19,5-3.62,5.45,2.79,1.27,6.91-.26,7.44,4.77-3.73,0-7.43.14-11.11-.06a2.6,2.6,0,0,1-2.65-3.15,72.78,72.78,0,0,0,0-8.09C749.64,636.45,749.84,634.77,752.79,634.69Z"/><path class="cls-3" d="M788.84,658.74c-2.52,3.39-5.25,4.83-9.36,3.5-6.11-2-12.37.22-18.57-.24-2.24-.17-5.32.32-5.54-2.47-.23-3,3.31-2.43,5-2.51C769.79,656.57,779.24,656.7,788.84,658.74Z"/><path class="cls-3" d="M787.2,648.81l10.44-15.07c-.88-.75-3.53-1.65-1.47-4.15.46-.57,7-.37,7.54.26a1.77,1.77,0,0,1,.09,1.86c-1.11,3.27-2.25,6.52-5,8.9-.71.62-1.93,1.45-1.85,2,.92,7.11-5.11,4.12-8,5.6C788.67,648.4,788.31,648.46,787.2,648.81Z"/><path class="cls-3" d="M774.76,655a19.9,19.9,0,0,1-12.73.51c-2.37-.68-5.08-.24-7.64-.13a3.58,3.58,0,0,1-3.65-1.94c-.42-.83-.54-2,.92-2C759.3,651.4,767,651,774.76,655Z"/><path class="cls-3" d="M778,653.44c4.6-1.22,9.19-2.49,13.82-3.62,1.15-.28,2.64-.25,3.06,1.21s.74,3-.57,4.13c-2.11,1.85-4.19,3.28-7.38,1.84-2.75-1.25-5.84-1.77-8.78-2.61Z"/><path class="cls-3" d="M765.47,593.89c.19,8-7.92,10.74-10.5,17A25.62,25.62,0,0,1,765.47,593.89Z"/><path class="cls-3" d="M780.38,665.93c-5.49,2.5-10.43,1.83-15.35,1.12-.62-.09-1.59-.32-1.54-1.47s.81-1.09,1.61-1.27C770.08,663.19,775,662.55,780.38,665.93Z"/><path class="cls-3" d="M749.91,619.15c1.93-1.22,2.78-4.12,5.48-3.75,3,.41,3.27-2.91,5.47-3.41C762.61,618.36,758.52,621.06,749.91,619.15Z"/><path class="cls-3" d="M766.77,589.16a12.37,12.37,0,0,1,.05-3.23c.45-1.43,1.44-2.82,3.09-2.43,1.32.32,1.7,1.86,1.65,3.18,0,.75-.62,1.47-.69,2.23-.18,1.93-.55,4.33-2.72,4.15C765.77,592.86,767.23,590.21,766.77,589.16Z"/><path class="cls-3" d="M808.76,619.15c-1.87,3.76-5.67,1.64-8.23,3.05-.52.28-1.41-.46-1.39-1.12a1.86,1.86,0,0,1,1.18-1.9C803,618.37,805.66,617.57,808.76,619.15Z"/><path class="cls-3" d="M807,624.72c-1.41,3.58-4.23,3.35-7,3.2-.94,0-2,.07-1.84-1.36a1.78,1.78,0,0,1,1.77-1.82C802.24,624.66,804.58,624.72,807,624.72Z"/><path class="cls-1" d="M858.7,789.27c8.64-.65,18.71.38,28.71,1,11.57.69,23.18,1,34.7,2.21,6.12.62,12.36,1.37,18.07,4.6,6.5,3.68,9.05,9.84,10.5,16.22,2.81,12.36-3.78,25.05-14.82,31.47-6.44,3.75-12.8,7.51-20.35,8.31-14.73,1.57-29.56,3.13-44-1.55a38.9,38.9,0,0,1-17.4-11.12c-4.79-5.42-10.77-9.68-14.59-16-4.42-7.35-8.06-14.74-7.21-23.72,1-10,2.21-10.21,11.19-11.25C848,788.84,852.68,789.27,858.7,789.27Z"/></svg>